<svg width="407" height="218" viewBox="0 0 407 218" fill="none" xmlns="http://www.w3.org/2000/svg">
<path d="M120.359 -15.1189C121.069 -15.8115 121.744 -16.0886 122.348 -16.0886C123.396 -16.0886 124.142 -15.1709 124.107 -14.08C124.071 -13.4046 123.787 -12.6947 123.112 -12.054C97.0188 19.5823 78.0306 56.5866 78.0306 107.894C78.0306 159.167 97.0188 195.444 123.112 227.08C123.769 227.721 124.071 228.483 124.107 229.106C124.124 230.214 123.396 231.132 122.348 231.132C121.762 231.132 121.069 230.855 120.359 230.162L9.09439 125.262C3.53473 120.639 0 115.219 0 107.53C0 99.8074 3.55249 94.4048 9.09439 89.7987L120.359 -15.1189Z" fill="white" fill-opacity="0.5"/>
<path d="M205.875 -24C162.321 -24 145.305 36.1904 145.305 107.896C145.305 179.636 162.321 239.013 205.875 239.013C232.021 239.013 254.295 224.086 254.366 211.809C254.366 209.125 253.318 206.563 251.009 204.312C238.629 192.641 233.798 180.987 233.726 170.684C233.655 151.03 251.151 136.398 267.244 136.398C289.412 136.398 302.467 153.385 302.467 175.359C302.467 196.19 293.355 213.558 283.461 227.446C283.071 228.017 282.911 228.641 282.911 229.195C282.911 230.268 283.568 231.169 284.563 231.169C285.167 231.169 285.877 230.857 286.623 230.112L397.905 125.212C403.447 120.589 407 115.169 407 107.48C407 99.7575 403.447 94.3549 397.905 89.7488L286.623 -15.1862C285.859 -15.9134 285.167 -16.2424 284.563 -16.2424C283.55 -16.2424 282.911 -15.3247 282.911 -14.2338C282.911 -13.6797 283.071 -13.0563 283.461 -12.4675C293.355 1.40258 302.467 18.7878 302.467 39.5844C302.467 61.5584 289.394 78.5627 267.244 78.5627C251.134 78.5627 233.655 63.9134 233.726 44.2597C233.78 33.9913 238.629 22.303 251.009 10.6493C253.318 8.38092 254.366 5.83546 254.366 3.15148C254.295 -9.03899 232.004 -24 205.875 -24Z" fill="white" fill-opacity="0.5"/>
</svg>
