<svg width="26" height="17" viewBox="0 0 26 17" fill="none" xmlns="http://www.w3.org/2000/svg">
<g clip-path="url(#clip0_13538_11008)">
<g clip-path="url(#clip1_13538_11008)">
<path d="M8.01657 1.02859C8.05881 0.987242 8.10105 0.970703 8.13679 0.970703C8.20177 0.970703 8.24509 1.02342 8.24509 1.0906C8.24292 1.13091 8.22343 1.17329 8.18336 1.21256C6.59347 3.10197 5.43354 5.31075 5.43354 8.37534C5.43354 11.4348 6.59238 13.6001 8.18336 15.4906C8.22343 15.5278 8.24292 15.5733 8.24509 15.6136C8.24509 15.6797 8.20177 15.7335 8.13679 15.7335C8.10105 15.7335 8.05881 15.7169 8.01657 15.6746L1.23029 9.41203C0.892387 9.134 0.675781 8.81255 0.675781 8.3526C0.675781 7.89162 0.892387 7.56914 1.23029 7.29317L8.01657 1.02859Z" fill="#E30613"/>
<path d="M13.2311 0.5C10.5744 0.5 9.53906 4.09379 9.53906 8.37596C9.53906 12.6581 10.5744 16.2044 13.2311 16.2044C14.8243 16.2044 16.1856 15.3145 16.1889 14.5816C16.1889 14.4204 16.125 14.2664 15.9864 14.1351C15.2293 13.4364 14.9347 12.7408 14.9304 12.1258C14.9271 10.9527 15.9929 10.0772 16.9752 10.0772C18.329 10.0772 19.125 11.0922 19.125 12.4039C19.125 13.6483 18.5672 14.684 17.964 15.5139C17.9423 15.548 17.9304 15.5842 17.9304 15.6183C17.9315 15.6834 17.9726 15.7372 18.0311 15.7372C18.0679 15.7372 18.1102 15.7196 18.1578 15.6741L24.9441 9.41265C25.2831 9.13461 25.4997 8.81213 25.4997 8.35219C25.4997 7.89224 25.2831 7.56976 24.9441 7.29379L18.1578 1.03023C18.1113 0.985788 18.069 0.969251 18.0311 0.969251C17.9705 0.969251 17.9315 1.02196 17.9304 1.08605C17.9304 1.11912 17.9434 1.15736 17.964 1.19147C18.5672 2.01938 19.125 3.05607 19.125 4.29844C19.125 5.6111 18.329 6.62609 16.9752 6.62609C15.9929 6.62609 14.9282 5.75167 14.9304 4.57855C14.9358 3.96563 15.2293 3.26692 15.9864 2.57235C16.125 2.43695 16.1889 2.28501 16.1889 2.12377C16.1845 1.39199 14.8232 0.5 13.2311 0.5Z" fill="#E30613"/>
</g>
</g>
<defs>
<clipPath id="clip0_13538_11008">
<rect width="25" height="16" fill="white" transform="translate(0.5 0.5)"/>
</clipPath>
<clipPath id="clip1_13538_11008">
<rect width="24.8242" height="15.7044" fill="white" transform="translate(0.675781 0.5)"/>
</clipPath>
</defs>
</svg>
