<svg width="25" height="17" viewBox="0 0 25 17" fill="none" xmlns="http://www.w3.org/2000/svg">
<g clip-path="url(#clip0_13541_6458)">
<g clip-path="url(#clip1_13541_6458)">
<path d="M7.51678 0.519602C7.56011 0.479095 7.60128 0.462891 7.63811 0.462891C7.70203 0.462891 7.74753 0.516563 7.74537 0.580361C7.7432 0.619855 7.72587 0.661374 7.6847 0.698843C6.09321 2.54899 4.93508 4.71307 4.93508 7.71362C4.93508 10.7121 6.09321 12.8337 7.6847 14.6838C7.72478 14.7213 7.7432 14.7659 7.74537 14.8023C7.74645 14.8671 7.70203 14.9208 7.63811 14.9208C7.60236 14.9208 7.56011 14.9046 7.51678 14.8641L0.730472 8.72933C0.391374 8.45894 0.175781 8.14198 0.175781 7.69235C0.175781 7.2407 0.392457 6.92475 0.730472 6.65538L7.51678 0.519602Z" fill="#E30613"/>
<path d="M12.7334 0C10.0769 0 9.03906 3.52004 9.03906 7.71351C9.03906 11.909 10.0769 15.3815 12.7334 15.3815C14.3281 15.3815 15.6867 14.5085 15.691 13.7906C15.691 13.6336 15.6271 13.4837 15.4863 13.3521C14.7312 12.6695 14.4365 11.988 14.4321 11.3855C14.4278 10.2361 15.4949 9.38037 16.4765 9.38037C17.8285 9.38037 18.6248 10.3738 18.6248 11.6589C18.6248 12.8771 18.0691 13.8928 17.4656 14.705C17.4418 14.7384 17.432 14.7749 17.432 14.8073C17.432 14.8701 17.4721 14.9227 17.5328 14.9227C17.5696 14.9227 17.6129 14.9045 17.6584 14.8609L24.4458 8.72619C24.7839 8.4558 25.0005 8.13884 25.0005 7.68921C25.0005 7.23756 24.7839 6.92161 24.4458 6.65224L17.6584 0.515449C17.6119 0.472917 17.5696 0.453676 17.5328 0.453676C17.471 0.453676 17.432 0.507348 17.432 0.571146C17.432 0.603552 17.4418 0.640008 17.4656 0.674439C18.0691 1.48559 18.6248 2.50231 18.6248 3.71853C18.6248 5.00361 17.8275 5.99805 16.4765 5.99805C15.4939 5.99805 14.4278 5.14133 14.4321 3.99195C14.4354 3.39143 14.7312 2.70788 15.4863 2.02635C15.6271 1.89369 15.691 1.74483 15.691 1.58787C15.6867 0.874947 14.3271 0 12.7334 0Z" fill="#004F9F"/>
</g>
</g>
<defs>
<clipPath id="clip0_13541_6458">
<rect width="25" height="16" fill="white"/>
</clipPath>
<clipPath id="clip1_13541_6458">
<rect width="24.8235" height="15.3815" fill="white" transform="translate(0.175781)"/>
</clipPath>
</defs>
</svg>
