<svg width="29" height="20" viewBox="0 0 29 20" fill="none" xmlns="http://www.w3.org/2000/svg">
<g clip-path="url(#clip0_15719_6662)">
<g clip-path="url(#clip1_15719_6662)">
<path d="M8.72063 1.32262C8.7709 1.27563 8.81866 1.25684 8.86138 1.25684C8.93553 1.25684 8.98831 1.3191 8.9858 1.3931C8.98328 1.43891 8.96318 1.48708 8.91542 1.53054C7.0693 3.67672 5.72586 6.18705 5.72586 9.66768C5.72586 13.146 7.0693 15.607 8.91542 17.7531C8.96192 17.7966 8.98328 17.8483 8.9858 17.8906C8.98705 17.9657 8.93553 18.028 8.86138 18.028C8.81991 18.028 8.7709 18.0092 8.72063 17.9622L0.848519 10.8459C0.455165 10.5323 0.205078 10.1646 0.205078 9.64301C0.205078 9.11909 0.456422 8.75259 0.848519 8.44012L8.72063 1.32262Z" fill="#482B2A"/>
<path d="M14.7708 0.719971C11.6893 0.719971 10.4854 4.80322 10.4854 9.66765C10.4854 14.5344 11.6893 18.5625 14.7708 18.5625C16.6207 18.5625 18.1966 17.5499 18.2016 16.717C18.2016 16.5349 18.1275 16.3611 17.9641 16.2084C17.0882 15.4166 16.7463 14.626 16.7413 13.9271C16.7363 12.5938 17.9742 11.6012 19.1128 11.6012C20.6811 11.6012 21.6048 12.7536 21.6048 14.2443C21.6048 15.6574 20.9601 16.8357 20.2601 17.7778C20.2325 17.8165 20.2212 17.8588 20.2212 17.8964C20.2212 17.9692 20.2677 18.0303 20.3381 18.0303C20.3808 18.0303 20.4311 18.0092 20.4838 17.9587L28.3572 10.8423C28.7493 10.5287 29.0007 10.161 29.0007 9.63945C29.0007 9.11554 28.7493 8.74903 28.3572 8.43656L20.4838 1.31789C20.4298 1.26855 20.3808 1.24623 20.3381 1.24623C20.2664 1.24623 20.2212 1.30849 20.2212 1.3825C20.2212 1.42009 20.2325 1.46238 20.2601 1.50232C20.9601 2.44325 21.6048 3.62265 21.6048 5.03346C21.6048 6.52415 20.6799 7.67771 19.1128 7.67771C17.9729 7.67771 16.7363 6.68391 16.7413 5.35063C16.7451 4.65403 17.0882 3.86111 17.9641 3.07054C18.1275 2.91666 18.2016 2.74397 18.2016 2.5619C18.1966 1.73491 16.6194 0.719971 14.7708 0.719971Z" fill="#482B2A"/>
</g>
</g>
<defs>
<clipPath id="clip0_15719_6662">
<rect width="29" height="18.56" fill="white" transform="translate(0 0.719971)"/>
</clipPath>
<clipPath id="clip1_15719_6662">
<rect width="28.7953" height="17.8425" fill="white" transform="translate(0.205078 0.719971)"/>
</clipPath>
</defs>
</svg>
