<svg width="65" height="66" viewBox="0 0 65 66" fill="none" xmlns="http://www.w3.org/2000/svg">
<path d="M29.8465 53.625H20.3132C18.634 53.625 17.1444 53.57 15.8173 53.3775C8.6944 52.58 6.77148 49.17 6.77148 39.875V26.125C6.77148 16.83 8.6944 13.42 15.8173 12.6225C17.1444 12.43 18.634 12.375 20.3132 12.375H29.684" stroke="#004F9F" stroke-width="1.5" stroke-linecap="round" stroke-linejoin="round"/>
<path d="M40.6797 12.375H44.688C46.3672 12.375 47.8568 12.43 49.1839 12.6225C56.3068 13.42 58.2297 16.83 58.2297 26.125V39.875C58.2297 49.17 56.3068 52.58 49.1839 53.3775C47.8568 53.57 46.3672 53.625 44.688 53.625H40.6797" stroke="#004F9F" stroke-width="1.5" stroke-linecap="round" stroke-linejoin="round"/>
<path d="M40.625 5.5V60.5" stroke="#004F9F" stroke-width="1.5" stroke-linecap="round" stroke-linejoin="round"/>
<path d="M30.0483 33H30.0726" stroke="#004F9F" stroke-width="4" stroke-linecap="round" stroke-linejoin="round"/>
<path d="M19.2143 33H19.2386" stroke="#004F9F" stroke-width="4" stroke-linecap="round" stroke-linejoin="round"/>
</svg>
