<svg width="65" height="66" viewBox="0 0 65 66" fill="none" xmlns="http://www.w3.org/2000/svg">
<path d="M52.8118 34.375C52.8118 30.58 55.8452 27.5 59.5827 27.5V24.75C59.5827 13.75 56.8743 11 46.041 11H18.9577C8.12435 11 5.41602 13.75 5.41602 24.75V26.125C9.15352 26.125 12.1868 29.205 12.1868 33C12.1868 36.795 9.15352 39.875 5.41602 39.875V41.25C5.41602 52.25 8.12435 55 18.9577 55H46.041C56.8743 55 59.5827 52.25 59.5827 41.25C55.8452 41.25 52.8118 38.17 52.8118 34.375Z" stroke="#004F9F" stroke-width="1.5" stroke-linecap="round" stroke-linejoin="round"/>
<path d="M27.084 11L27.084 55" stroke="#004F9F" stroke-width="1.5" stroke-linecap="round" stroke-linejoin="round" stroke-dasharray="5 5"/>
</svg>
