<svg width="20" height="20" viewBox="0 0 20 20" fill="none" xmlns="http://www.w3.org/2000/svg">
<path d="M14.512 11.9839C14.265 11.8599 13.047 11.2599 12.82 11.1779C12.593 11.0949 12.428 11.0539 12.263 11.3019C12.098 11.5489 11.623 12.1079 11.478 12.2729C11.334 12.4379 11.189 12.4579 10.942 12.3339C10.2121 12.0433 9.53832 11.6277 8.951 11.1059C8.40932 10.6052 7.94493 10.0269 7.573 9.38985C7.429 9.14185 7.558 9.00785 7.682 8.88485C7.793 8.77385 7.93 8.59585 8.053 8.45085C8.15487 8.32567 8.23838 8.18661 8.301 8.03785C8.33395 7.96949 8.34929 7.89398 8.34562 7.81819C8.34196 7.74239 8.3194 7.66871 8.28 7.60385C8.218 7.47985 7.723 6.26085 7.517 5.76485C7.316 5.28285 7.112 5.34785 6.959 5.33985C6.815 5.33285 6.65 5.33085 6.485 5.33085C6.35949 5.33435 6.23605 5.36379 6.12247 5.41731C6.00888 5.47083 5.9076 5.54728 5.825 5.64185C5.54502 5.90699 5.32334 6.22753 5.17407 6.58306C5.0248 6.93859 4.95121 7.32132 4.958 7.70685C5.0383 8.64109 5.38968 9.53154 5.969 10.2689C7.03092 11.8609 8.48863 13.1494 10.199 14.0079C10.6604 14.2061 11.1317 14.3803 11.611 14.5299C12.1163 14.6833 12.6505 14.7165 13.171 14.6269C13.5157 14.557 13.8422 14.4165 14.1298 14.214C14.4174 14.0116 14.6599 13.7518 14.842 13.4509C15.0044 13.0808 15.0545 12.6711 14.986 12.2729C14.925 12.1689 14.76 12.1079 14.512 11.9839ZM17.004 2.90485C15.3039 1.2052 13.0442 0.181262 10.6454 0.0236578C8.24662 -0.133947 5.8723 0.585526 3.96448 2.04813C2.05667 3.51073 0.745358 5.6168 0.274694 7.97422C-0.195971 10.3316 0.206082 12.7798 1.406 14.8629L0 19.9978L5.254 18.6208C6.70716 19.4121 8.33538 19.8267 9.99 19.8268H9.994C11.9541 19.8258 13.8699 19.2439 15.4994 18.1545C17.1289 17.0652 18.399 15.5173 19.1491 13.7064C19.8993 11.8956 20.0959 9.90298 19.7141 7.98044C19.3323 6.05789 18.3892 4.29164 17.004 2.90484V2.90485ZM14.371 16.8938C13.0591 17.7161 11.5423 18.1524 9.994 18.1528H9.99C8.5149 18.1528 7.06699 17.7559 5.798 17.0038L5.497 16.8258L2.379 17.6438L3.211 14.6038L3.016 14.2918C2.15055 12.9117 1.71378 11.3059 1.76094 9.6775C1.80809 8.04912 2.33705 6.47129 3.28092 5.14352C4.22479 3.81576 5.54119 2.7977 7.06365 2.21807C8.58611 1.63844 10.2463 1.52328 11.8342 1.88715C13.4221 2.25102 14.8664 3.07757 15.9846 4.2623C17.1027 5.44703 17.8445 6.93671 18.116 8.54299C18.3876 10.1493 18.1767 11.8 17.5101 13.2864C16.8435 14.7729 15.7511 16.0282 14.371 16.8938Z" fill="#575757"/>
</svg>
