<svg width="102" height="32" viewBox="0 0 102 32" fill="none" xmlns="http://www.w3.org/2000/svg">
<g clip-path="url(#clip0_15801_11572)">
<path d="M93.6373 -0.000140141H7.68243C7.38907 -0.000140141 7.09923 -0.000140141 6.80665 0.00145986C6.56173 0.00305986 6.31876 0.00770786 6.07149 0.0116199C5.5343 0.0179413 4.99837 0.0652009 4.46837 0.152988C3.93911 0.242686 3.42643 0.411792 2.94766 0.654588C2.46949 0.899437 2.03256 1.21759 1.65274 1.59752C1.27093 1.97637 0.952658 2.41427 0.710168 2.89439C0.467008 3.37355 0.2984 3.88701 0.210168 4.41704C0.121096 4.94641 0.0731662 5.48188 0.0668075 6.01864C0.0593835 6.26392 0.0585995 6.51002 0.0546875 6.75533V25.2467C0.0585995 25.4951 0.0593835 25.7358 0.0668075 25.9843C0.0731682 26.521 0.121098 27.0564 0.210168 27.5858C0.298156 28.1161 0.466774 28.6299 0.710168 29.1092C0.952548 29.5878 1.27086 30.0239 1.65274 30.4007C2.03112 30.7823 2.46833 31.1006 2.94766 31.3436C3.42642 31.5871 3.93905 31.7572 4.46837 31.8483C4.99846 31.9353 5.53433 31.9826 6.07149 31.9897C6.31876 31.9951 6.56173 31.9983 6.80665 31.9983C7.09922 31.9999 7.38909 31.9999 7.68243 31.9999H93.6373C93.9248 31.9999 94.2169 31.9999 94.5045 31.9983C94.7482 31.9983 94.9982 31.9951 95.242 31.9897C95.7781 31.983 96.313 31.9357 96.842 31.8483C97.373 31.7565 97.8875 31.5865 98.3685 31.3436C98.8474 31.1005 99.2842 30.7821 99.6623 30.4007C100.043 30.0224 100.362 29.5866 100.608 29.1092C100.849 28.6295 101.016 28.1158 101.103 27.5858C101.192 27.0564 101.242 26.521 101.251 25.9843C101.254 25.7358 101.254 25.4951 101.254 25.2467C101.261 24.9561 101.261 24.6671 101.261 24.3717V7.62876C101.261 7.33579 101.261 7.04517 101.254 6.75533C101.254 6.51002 101.254 6.26392 101.251 6.01861C101.242 5.4818 101.192 4.94645 101.103 4.41701C101.016 3.88728 100.849 3.37386 100.608 2.89436C100.114 1.93202 99.3307 1.14868 98.3685 0.654516C97.8875 0.412314 97.3729 0.243252 96.842 0.152916C96.3131 0.0647421 95.7782 0.0174661 95.242 0.0115079C94.9982 0.00760386 94.7482 0.00291586 94.5045 0.00135586C94.2169 -0.000244141 93.9248 -0.000244141 93.6373 -0.000244141V-0.000140141Z" fill="#A6A6A6"/>
<path d="M6.81038 31.2999C6.56664 31.2999 6.32878 31.2968 6.08695 31.2914C5.58598 31.2849 5.08618 31.2412 4.59164 31.1609C4.13051 31.0815 3.6838 30.9338 3.26625 30.7226C2.85252 30.5132 2.47517 30.2386 2.14865 29.9093C1.8174 29.5839 1.54162 29.2065 1.33224 28.7921C1.12055 28.375 0.974052 27.9279 0.897842 27.4664C0.815541 26.9704 0.771013 26.469 0.764642 25.9664C0.75957 25.7976 0.75293 25.2359 0.75293 25.2359V6.75542C0.75293 6.75542 0.760002 6.20229 0.764682 6.03979C0.770783 5.53794 0.815049 5.03727 0.897098 4.54214C0.973455 4.07935 1.12007 3.63095 1.33187 3.21245C1.54049 2.79831 1.81473 2.42064 2.14398 2.0941C2.47286 1.76445 2.85143 1.48844 3.26586 1.27612C3.68245 1.06563 4.12832 0.918937 4.58851 0.840967C5.08467 0.75982 5.58621 0.715948 6.08892 0.709719L6.81078 0.699951H94.5004L95.2309 0.710111C95.729 0.716031 96.226 0.759511 96.7176 0.840183C97.1824 0.919131 97.6329 1.06684 98.0543 1.27846C98.8846 1.70634 99.5601 2.38328 99.9863 3.21441C100.195 3.63001 100.339 4.07476 100.414 4.53354C100.497 5.03274 100.544 5.53734 100.553 6.04331C100.556 6.26987 100.556 6.51323 100.556 6.75542C100.562 7.05542 100.562 7.34097 100.562 7.62885V24.3718C100.562 24.6624 100.562 24.946 100.556 25.232C100.556 25.4921 100.556 25.7304 100.553 25.9757C100.543 26.4727 100.498 26.9682 100.416 27.4585C100.341 27.9234 100.196 28.374 99.984 28.7945C99.7731 29.2044 99.4989 29.5786 99.1715 29.9031C98.8447 30.2341 98.4667 30.5103 98.052 30.7211C97.6318 30.9339 97.1819 31.0821 96.7176 31.1609C96.2231 31.2417 95.7232 31.2853 95.2222 31.2914C94.9879 31.2968 94.7425 31.2999 94.5043 31.2999L93.6371 31.3015L6.81038 31.2999Z" fill="black"/>
<path d="M19.872 16.2404C19.8806 15.5726 20.058 14.9179 20.3876 14.3372C20.7172 13.7564 21.1884 13.2685 21.7573 12.9187C21.3959 12.4026 20.9191 11.9778 20.3649 11.6782C19.8106 11.3785 19.1941 11.2123 18.5644 11.1926C17.221 11.0516 15.9186 11.9964 15.234 11.9964C14.5362 11.9964 13.4822 11.2066 12.3472 11.2299C11.6131 11.2536 10.8976 11.4671 10.2705 11.8496C9.64341 12.232 9.12607 12.7704 8.76889 13.4122C7.22169 16.091 8.37577 20.0278 9.85785 22.1931C10.5994 23.2534 11.466 24.4377 12.6 24.3957C13.7096 24.3497 14.124 23.6881 15.4635 23.6881C16.7905 23.6881 17.1793 24.3957 18.3363 24.369C19.527 24.3497 20.2772 23.304 20.9927 22.2337C21.5255 21.4782 21.9354 20.6432 22.2074 19.7597C21.5156 19.4671 20.9253 18.9774 20.51 18.3515C20.0947 17.7257 19.8728 16.9915 19.872 16.2404Z" fill="white"/>
<path d="M17.6871 9.76857C18.3363 8.9892 18.6562 7.98746 18.5787 6.97607C17.5868 7.08025 16.6706 7.5543 16.0126 8.30376C15.6909 8.66989 15.4445 9.09584 15.2875 9.55726C15.1305 10.0187 15.066 10.5065 15.0977 10.9929C15.5938 10.998 16.0846 10.8905 16.5331 10.6784C16.9816 10.4663 17.3762 10.1552 17.6871 9.76857Z" fill="white"/>
<path d="M28.5788 11.7612V7.66241H27.0771V6.98779H30.8186V7.6624H29.3201V11.7612H28.5788Z" fill="white"/>
<path d="M34.2667 10.7886C34.1701 11.1179 33.9609 11.4026 33.6755 11.5932C33.3902 11.7837 33.0469 11.8678 32.7058 11.8308C32.4685 11.8371 32.2326 11.7916 32.0146 11.6976C31.7966 11.6036 31.6017 11.4632 31.4434 11.2863C31.285 11.1094 31.1671 10.9002 31.0977 10.6731C31.0284 10.446 31.0093 10.2066 31.0417 9.97143C31.0101 9.73552 31.0296 9.49557 31.0988 9.26784C31.168 9.0401 31.2853 8.82989 31.4428 8.65143C31.6003 8.47297 31.7943 8.33043 32.0116 8.23346C32.229 8.1365 32.4647 8.08737 32.7027 8.0894C33.705 8.0894 34.3097 8.7742 34.3097 9.9054V10.1534H31.7659V10.1933C31.7548 10.3255 31.7714 10.4585 31.8147 10.5839C31.858 10.7093 31.9271 10.8243 32.0174 10.9215C32.1077 11.0186 32.2173 11.0959 32.3393 11.1482C32.4612 11.2005 32.5927 11.2268 32.7253 11.2253C32.8954 11.2457 33.0677 11.2151 33.2203 11.1373C33.3729 11.0595 33.4989 10.9382 33.5824 10.7886L34.2667 10.7886ZM31.7659 9.62768H33.5855C33.5944 9.50678 33.578 9.38534 33.5373 9.27117C33.4965 9.15699 33.4323 9.05261 33.3488 8.96472C33.2653 8.87684 33.1643 8.80739 33.0524 8.76085C32.9404 8.71431 32.82 8.69171 32.6988 8.69448C32.5758 8.69294 32.4538 8.71602 32.3399 8.76237C32.226 8.80873 32.1225 8.87742 32.0356 8.96439C31.9486 9.05136 31.88 9.15485 31.8337 9.26877C31.7874 9.38269 31.7643 9.50472 31.7659 9.62768H31.7659ZM32.2753 7.55659L33.1058 6.4187H33.9394L33.0097 7.55659H32.2753Z" fill="white"/>
<path d="M35.2969 6.75269H36.0078V11.7613H35.2969V6.75269Z" fill="white"/>
<path d="M40.2208 10.7886C40.1242 11.1179 39.915 11.4026 39.6296 11.5932C39.3443 11.7837 39.001 11.8678 38.6599 11.8308C38.4226 11.8371 38.1867 11.7916 37.9687 11.6976C37.7507 11.6036 37.5558 11.4632 37.3975 11.2863C37.2391 11.1094 37.1212 10.9002 37.0518 10.6731C36.9825 10.446 36.9634 10.2066 36.9958 9.97143C36.9642 9.73552 36.9837 9.49557 37.0529 9.26784C37.1221 9.0401 37.2394 8.82989 37.3969 8.65143C37.5544 8.47297 37.7484 8.33043 37.9657 8.23346C38.1831 8.1365 38.4188 8.08737 38.6568 8.0894C39.6591 8.0894 40.2638 8.7742 40.2638 9.9054V10.1534H37.72V10.1933C37.7089 10.3255 37.7255 10.4585 37.7688 10.5839C37.8121 10.7093 37.8811 10.8243 37.9715 10.9215C38.0618 11.0186 38.1714 11.0959 38.2933 11.1482C38.4153 11.2005 38.5467 11.2268 38.6794 11.2253C38.8495 11.2457 39.0218 11.2151 39.1744 11.1373C39.327 11.0595 39.453 10.9382 39.5364 10.7886L40.2208 10.7886ZM37.72 9.62768H39.5396C39.5485 9.50678 39.5321 9.38534 39.4913 9.27117C39.4506 9.15699 39.3864 9.05261 39.3029 8.96472C39.2193 8.87684 39.1184 8.80739 39.0064 8.76085C38.8945 8.71431 38.774 8.69171 38.6528 8.69448C38.5299 8.69294 38.4079 8.71602 38.294 8.76238C38.1801 8.80873 38.0766 8.87742 37.9897 8.96439C37.9027 9.05136 37.8341 9.15486 37.7878 9.26877C37.7415 9.38269 37.7184 9.50473 37.72 9.62768ZM38.2294 7.55659L39.0599 6.4187H39.8935L38.9638 7.55659H38.2294Z" fill="white"/>
<path d="M43.5768 9.33634C43.5315 9.14954 43.4208 8.98515 43.2647 8.87294C43.1087 8.76072 42.9176 8.70811 42.7261 8.72462C42.1308 8.72462 41.7667 9.18087 41.7667 9.94845C41.7667 10.7293 42.1339 11.1957 42.7261 11.1957C42.9157 11.2177 43.1068 11.1696 43.2635 11.0606C43.4202 10.9515 43.5316 10.789 43.5768 10.6035H44.2683C44.2225 10.9683 44.0361 11.3008 43.7487 11.5301C43.4614 11.7593 43.0958 11.8673 42.73 11.8309C42.4891 11.8385 42.2495 11.7934 42.0279 11.6987C41.8062 11.604 41.608 11.4621 41.447 11.2828C41.2859 11.1035 41.166 10.8912 41.0956 10.6607C41.0252 10.4302 41.006 10.1872 41.0393 9.94848C41.0077 9.71156 41.0281 9.47059 41.0992 9.24239C41.1703 9.01418 41.2903 8.80424 41.4509 8.62723C41.6116 8.45021 41.8089 8.31038 42.0291 8.21751C42.2493 8.12463 42.4872 8.08094 42.7261 8.08949C43.0949 8.05552 43.4624 8.16681 43.7504 8.39968C44.0385 8.63254 44.2242 8.96861 44.2683 9.33637L43.5768 9.33634Z" fill="white"/>
<path d="M45.212 6.75269H45.9166V8.73785H45.9729C46.0674 8.53039 46.2236 8.35712 46.4201 8.24164C46.6167 8.12616 46.8441 8.07409 47.0713 8.09253C47.2457 8.08305 47.42 8.11216 47.5818 8.17779C47.7436 8.24342 47.889 8.34396 48.0075 8.47223C48.1259 8.6005 48.2147 8.75334 48.2673 8.91985C48.3199 9.08636 48.3352 9.26243 48.3119 9.4355V11.7613H47.6002V9.61089C47.6002 9.03549 47.3322 8.74409 46.8299 8.74409C46.7077 8.73406 46.5848 8.75086 46.4698 8.7933C46.3547 8.83575 46.2504 8.90281 46.164 8.9898C46.0776 9.07679 46.0112 9.18161 45.9696 9.29692C45.9279 9.41223 45.912 9.53524 45.9228 9.65737V11.7613H45.2119L45.212 6.75269Z" fill="white"/>
<path d="M49.2061 10.7425C49.2061 10.094 49.6889 9.72021 50.5459 9.66708L51.5217 9.61084V9.2999C51.5217 8.91943 51.2701 8.70459 50.7842 8.70459C50.3873 8.70459 50.1123 8.85029 50.0334 9.10498H49.3451C49.4178 8.48623 49.9998 8.08936 50.817 8.08936C51.7201 8.08936 52.2291 8.53896 52.2291 9.2999V11.7612H51.5451V11.255H51.4889C51.3747 11.4366 51.2144 11.5846 51.0243 11.684C50.8342 11.7833 50.6211 11.8305 50.4069 11.8206C50.2556 11.8363 50.1028 11.8202 49.9582 11.7732C49.8136 11.7263 49.6804 11.6495 49.5673 11.5479C49.4541 11.4464 49.3635 11.3222 49.3013 11.1835C49.2391 11.0447 49.2067 10.8945 49.2061 10.7425ZM51.5217 10.4347V10.1335L50.642 10.1897C50.1459 10.2229 49.9209 10.3917 49.9209 10.7093C49.9209 11.0335 50.2021 11.2222 50.5889 11.2222C50.7022 11.2336 50.8167 11.2222 50.9255 11.1885C51.0343 11.1549 51.1352 11.0996 51.2222 11.0262C51.3093 10.9527 51.3806 10.8625 51.4321 10.7608C51.4835 10.6592 51.514 10.5483 51.5217 10.4347L51.5217 10.4347Z" fill="white"/>
<path d="M53.3428 8.1589H54.0271V8.71125H54.0803C54.1569 8.5195 54.2923 8.35698 54.4671 8.247C54.6418 8.13702 54.8469 8.08526 55.0529 8.09913C55.1594 8.0977 55.2657 8.10765 55.3701 8.12882V8.83042C55.2396 8.80254 55.1067 8.78814 54.9732 8.78745C54.856 8.77692 54.7378 8.79104 54.6263 8.82889C54.5149 8.86675 54.4125 8.92751 54.3259 9.00726C54.2393 9.08702 54.1704 9.18401 54.1235 9.292C54.0766 9.39999 54.0529 9.51659 54.0537 9.63432V11.7613H53.3428L53.3428 8.1589Z" fill="white"/>
<path d="M56.024 12.1218H56.7514C56.8115 12.3831 57.1123 12.5519 57.592 12.5519C58.1842 12.5519 58.535 12.2706 58.535 11.7945V11.103H58.4818C58.3703 11.2966 58.2075 11.4555 58.0113 11.5623C57.8151 11.6691 57.5932 11.7196 57.3701 11.7081C56.4506 11.7081 55.8818 10.9972 55.8818 9.91867C55.8818 8.82027 56.4568 8.09915 57.3771 8.09915C57.6058 8.09118 57.8323 8.14621 58.0318 8.25823C58.2313 8.37024 58.3961 8.53493 58.5084 8.73431H58.5646V8.15891H59.2459V11.7909C59.2459 12.6147 58.6006 13.1374 57.5818 13.1374C56.6818 13.1374 56.0998 12.7339 56.024 12.1218ZM58.5482 9.91516C58.5482 9.19756 58.1771 8.73782 57.5717 8.73782C56.96 8.73782 56.6162 9.19759 56.6162 9.91516C56.6162 10.6331 56.96 11.0929 57.5717 11.0929C58.1811 11.0929 58.5482 10.6366 58.5482 9.91513V9.91516Z" fill="white"/>
<path d="M63.4249 10.7886C63.3283 11.1179 63.1191 11.4027 62.8337 11.5932C62.5484 11.7837 62.2051 11.8678 61.864 11.8308C61.6267 11.8371 61.3908 11.7916 61.1728 11.6976C60.9548 11.6036 60.7599 11.4632 60.6016 11.2863C60.4432 11.1094 60.3253 10.9002 60.2559 10.6731C60.1866 10.4461 60.1675 10.2066 60.1999 9.97145C60.1683 9.73554 60.1878 9.49559 60.257 9.26786C60.3262 9.04012 60.4435 8.8299 60.601 8.65145C60.7585 8.47299 60.9525 8.33045 61.1698 8.23348C61.3872 8.13652 61.6229 8.08739 61.8609 8.08942C62.8632 8.08942 63.4679 8.77422 63.4679 9.90542V10.1535H60.9242V10.1933C60.913 10.3255 60.9296 10.4586 60.9729 10.584C61.0162 10.7094 61.0853 10.8243 61.1756 10.9215C61.2659 11.0187 61.3755 11.0959 61.4975 11.1482C61.6194 11.2005 61.7509 11.2268 61.8835 11.2253C62.0536 11.2457 62.2259 11.2151 62.3785 11.1373C62.5311 11.0596 62.6571 10.9382 62.7406 10.7886L63.4249 10.7886ZM60.9241 9.6277H62.7437C62.7526 9.5068 62.7362 9.38536 62.6954 9.27119C62.6547 9.15701 62.5905 9.05263 62.507 8.96474C62.4234 8.87686 62.3225 8.80741 62.2105 8.76087C62.0986 8.71433 61.9781 8.69173 61.8569 8.6945C61.734 8.69296 61.612 8.71605 61.4981 8.7624C61.3842 8.80876 61.2807 8.87745 61.1938 8.96442C61.1068 9.05139 61.0382 9.15488 60.9919 9.2688C60.9456 9.38271 60.9226 9.50475 60.9242 9.6277H60.9241Z" fill="white"/>
<path d="M64.4219 8.1589H65.1063V8.71125H65.1594C65.236 8.5195 65.3714 8.35698 65.5462 8.247C65.721 8.13702 65.9261 8.08526 66.1321 8.09913C66.2386 8.0977 66.3449 8.10765 66.4493 8.12882V8.83042C66.3188 8.80254 66.1858 8.78814 66.0524 8.78745C65.9351 8.77692 65.817 8.79103 65.7055 8.82888C65.594 8.86673 65.4917 8.92749 65.4051 9.00724C65.3185 9.087 65.2495 9.18399 65.2026 9.29198C65.1557 9.39998 65.1319 9.51659 65.1328 9.63432V11.7613H64.4219V8.1589Z" fill="white"/>
<path d="M69.0107 9.95854C69.0107 8.82026 69.5959 8.09917 70.5061 8.09917C70.7312 8.08879 70.9546 8.14271 71.1502 8.25463C71.3459 8.36655 71.5056 8.53183 71.6107 8.73117H71.6639V6.75269H72.3748V11.7613H71.6936V11.1921H71.6373C71.524 11.3901 71.3587 11.5534 71.1593 11.6641C70.9599 11.7749 70.734 11.829 70.506 11.8206C69.5896 11.8207 69.0107 11.0996 69.0107 9.95854ZM69.7451 9.95854C69.7451 10.7226 70.1053 11.1824 70.7076 11.1824C71.3068 11.1824 71.6772 10.716 71.6772 9.96167C71.6772 9.21089 71.303 8.73784 70.7076 8.73784C70.1092 8.73784 69.7451 9.20075 69.7451 9.95854H69.7451Z" fill="white"/>
<path d="M73.3359 10.7425C73.3359 10.094 73.8188 9.72021 74.6758 9.66708L75.6516 9.61084V9.2999C75.6516 8.91943 75.4 8.70459 74.9141 8.70459C74.5172 8.70459 74.2422 8.85029 74.1633 9.10498H73.475C73.5477 8.48623 74.1297 8.08936 74.9469 8.08936C75.85 8.08936 76.3594 8.53896 76.3594 9.2999V11.7612H75.675V11.255H75.6188C75.5046 11.4366 75.3443 11.5846 75.1542 11.684C74.9641 11.7833 74.751 11.8305 74.5367 11.8206C74.3855 11.8363 74.2327 11.8202 74.088 11.7732C73.9434 11.7263 73.8103 11.6495 73.6971 11.5479C73.584 11.4464 73.4934 11.3222 73.4312 11.1835C73.369 11.0447 73.3365 10.8945 73.3359 10.7425ZM75.6516 10.4347V10.1335L74.7719 10.1897C74.2758 10.2229 74.0508 10.3917 74.0508 10.7093C74.0508 11.0335 74.332 11.2222 74.7188 11.2222C74.8321 11.2336 74.9466 11.2222 75.0554 11.1885C75.1642 11.1548 75.2651 11.0996 75.3521 11.0261C75.4391 10.9527 75.5105 10.8624 75.5619 10.7608C75.6134 10.6592 75.6439 10.5483 75.6516 10.4347V10.4347Z" fill="white"/>
<path d="M77.4727 8.15902H78.157V8.73128H78.2102C78.3003 8.52575 78.4523 8.35345 78.645 8.2384C78.8377 8.12336 79.0615 8.0713 79.2852 8.08948C79.4604 8.07631 79.6364 8.10273 79.8001 8.16681C79.9638 8.23089 80.111 8.33097 80.2307 8.45965C80.3504 8.58832 80.4397 8.74229 80.4919 8.91015C80.544 9.078 80.5578 9.25544 80.532 9.42932V11.7613H79.8211V9.60785C79.8211 9.02895 79.5695 8.74105 79.0437 8.74105C78.9247 8.73551 78.8059 8.75576 78.6955 8.80043C78.5851 8.84509 78.4856 8.91311 78.4039 8.99982C78.3222 9.08653 78.2602 9.18987 78.2222 9.30278C78.1841 9.41568 78.171 9.53547 78.1836 9.65394V11.7614H77.4727V8.15902Z" fill="white"/>
<path d="M82.9482 8.08936C83.7584 8.08936 84.2881 8.46631 84.3576 9.10147H83.6756C83.61 8.83701 83.3514 8.66827 82.9482 8.66827C82.5514 8.66827 82.2498 8.85655 82.2498 9.1378C82.2498 9.353 82.4319 9.48858 82.8225 9.57803L83.4209 9.7167C84.1061 9.87568 84.4271 10.1702 84.4271 10.6995C84.4271 11.3776 83.7951 11.8308 82.935 11.8308C82.0779 11.8308 81.5193 11.4437 81.4561 10.8054H82.1678C82.2291 10.9573 82.3397 11.0842 82.4818 11.1657C82.6239 11.2473 82.7893 11.2787 82.9514 11.255C83.3943 11.255 83.7092 11.0566 83.7092 10.7686C83.7092 10.5538 83.5404 10.4147 83.1795 10.3288L82.5514 10.1831C81.8662 10.021 81.549 9.71357 81.549 9.17763C81.549 8.53896 82.1342 8.08936 82.9482 8.08936Z" fill="white"/>
<path d="M28.2129 14.4534H29.7004V24.3881H28.2129V14.4534Z" fill="white"/>
<path d="M31.4922 18.0885L32.3047 14.4534H33.75L32.7656 18.0885H31.4922Z" fill="white"/>
<path d="M39.3713 21.703H35.5846L34.6752 24.3881H33.0713L36.658 14.4534H38.3244L41.9111 24.3881H40.2799L39.3713 21.703ZM35.9768 20.4639H38.9784L37.4987 16.1057H37.4573L35.9768 20.4639Z" fill="white"/>
<path d="M49.6567 20.767C49.6567 23.0178 48.452 24.4639 46.634 24.4639C46.1735 24.488 45.7155 24.3819 45.3124 24.1578C44.9094 23.9337 44.5776 23.6006 44.3551 23.1967H44.3207V26.7842H42.834V17.1448H44.273V18.3494H44.3004C44.5332 17.9475 44.8705 17.6161 45.2766 17.3906C45.6827 17.1652 46.1424 17.054 46.6066 17.069C48.4449 17.069 49.6567 18.5221 49.6567 20.767ZM48.1285 20.767C48.1285 19.3002 47.3707 18.3362 46.2145 18.3362C45.0785 18.3362 44.3145 19.3206 44.3145 20.767C44.3145 22.2264 45.0785 23.2038 46.2145 23.2038C47.3707 23.2037 48.1285 22.2467 48.1285 20.767Z" fill="white"/>
<path d="M57.6279 20.767C57.6279 23.0178 56.4232 24.4639 54.6053 24.4639C54.1448 24.488 53.6868 24.3819 53.2837 24.1578C52.8807 23.9337 52.5489 23.6006 52.3264 23.1967H52.292V26.7842H50.8057V17.1448H52.2443V18.3494H52.2717C52.5045 17.9475 52.8418 17.6161 53.2479 17.3906C53.6541 17.1652 54.1137 17.054 54.5779 17.069C56.4162 17.069 57.6279 18.5221 57.6279 20.767ZM56.0998 20.767C56.0998 19.3002 55.342 18.3362 54.1857 18.3362C53.0498 18.3362 52.2857 19.3206 52.2857 20.767C52.2857 22.2264 53.0498 23.2038 54.1857 23.2038C55.342 23.2037 56.0998 22.2467 56.0998 20.767Z" fill="white"/>
<path d="M62.8969 21.6203C63.007 22.6054 63.9641 23.2523 65.2719 23.2523C66.525 23.2523 67.4266 22.6054 67.4266 21.7171C67.4266 20.946 66.8828 20.4843 65.5953 20.1679L64.3078 19.8573C62.4836 19.4168 61.6367 18.5636 61.6367 17.1792C61.6367 15.4652 63.1305 14.2878 65.2515 14.2878C67.3507 14.2878 68.7898 15.4652 68.8383 17.1792H67.3375C67.2477 16.1878 66.4281 15.5894 65.2305 15.5894C64.0328 15.5894 63.2133 16.1949 63.2133 17.0761C63.2133 17.7785 63.7367 18.1918 65.0172 18.5081L66.1117 18.7769C68.15 19.2589 68.9969 20.0781 68.9969 21.5312C68.9969 23.3898 67.5164 24.5538 65.1617 24.5538C62.9586 24.5538 61.4711 23.4171 61.375 21.6202L62.8969 21.6203Z" fill="white"/>
<path d="M72.2061 15.4309V17.145H73.5834V18.3223H72.2061V22.3157C72.2061 22.936 72.4819 23.2251 73.0873 23.2251C73.2508 23.2222 73.4141 23.2107 73.5764 23.1907V24.361C73.3042 24.4118 73.0275 24.4349 72.7506 24.4297C71.2842 24.4297 70.7123 23.8789 70.7123 22.4742V18.3223H69.6592V17.145H70.7123V15.4309H72.2061Z" fill="white"/>
<path d="M74.3809 20.7672C74.3809 18.4879 75.723 17.0559 77.816 17.0559C79.916 17.0559 81.252 18.4879 81.252 20.7672C81.252 23.0524 79.9231 24.4782 77.816 24.4782C75.7098 24.4782 74.3809 23.0524 74.3809 20.7672ZM79.7371 20.7672C79.7371 19.2036 79.0207 18.2809 77.816 18.2809C76.6113 18.2809 75.8957 19.2106 75.8957 20.7672C75.8957 22.3368 76.6113 23.2524 77.816 23.2524C79.0207 23.2524 79.7371 22.3368 79.7371 20.7672H79.7371Z" fill="white"/>
<path d="M82.4775 17.1449H83.8955V18.3777H83.9299C84.0258 17.9927 84.2514 17.6524 84.5687 17.4141C84.886 17.1758 85.2756 17.054 85.6721 17.0691C85.8434 17.0685 86.0143 17.0871 86.1815 17.1246V18.5152C85.9652 18.4491 85.7395 18.4188 85.5135 18.4254C85.2975 18.4166 85.0821 18.4547 84.8822 18.5371C84.6823 18.6194 84.5026 18.744 84.3554 18.9024C84.2082 19.0607 84.0971 19.2491 84.0296 19.4544C83.962 19.6598 83.9398 19.8774 83.9643 20.0922V24.3883H82.4775L82.4775 17.1449Z" fill="white"/>
<path d="M93.0356 22.261C92.8355 23.5758 91.5551 24.4782 89.9168 24.4782C87.8098 24.4782 86.502 23.0665 86.502 20.8016C86.502 18.5293 87.8168 17.0559 89.8543 17.0559C91.8582 17.0559 93.1184 18.4325 93.1184 20.629V21.1383H88.0027V21.2282C87.9791 21.4947 88.0125 21.7633 88.1006 22.0159C88.1888 22.2686 88.3297 22.4996 88.514 22.6937C88.6982 22.8877 88.9217 23.0403 89.1695 23.1414C89.4173 23.2424 89.6838 23.2896 89.9512 23.2797C90.3025 23.3127 90.6551 23.2313 90.9564 23.0477C91.2578 22.8642 91.4919 22.5882 91.6238 22.261L93.0356 22.261ZM88.0098 20.0993H91.6309C91.6443 19.8595 91.6079 19.6197 91.5242 19.3947C91.4405 19.1696 91.3112 18.9644 91.1444 18.7917C90.9775 18.6191 90.7768 18.4828 90.5548 18.3914C90.3328 18.3 90.0943 18.2554 89.8543 18.2606C89.6122 18.2592 89.3722 18.3057 89.1481 18.3975C88.9241 18.4893 88.7204 18.6246 88.5489 18.7956C88.3774 18.9665 88.2415 19.1697 88.149 19.3935C88.0564 19.6172 88.0091 19.8571 88.0098 20.0993Z" fill="white"/>
</g>
<defs>
<clipPath id="clip0_15801_11572">
<rect width="101.206" height="32" fill="white" transform="translate(0.0546875)"/>
</clipPath>
</defs>
</svg>
