<svg width="16" height="16" viewBox="0 0 16 16" fill="none" xmlns="http://www.w3.org/2000/svg">
<path d="M11.3474 11.067L10.8319 11.8402C10.729 11.9945 10.5929 12.1262 10.4136 12.1736C9.82613 12.3289 8.26656 12.399 5.89217 10.0246C3.51777 7.65017 3.58785 6.09058 3.74307 5.50314C3.79046 5.3238 3.92216 5.18772 4.0765 5.08483L4.84975 4.56933C5.42545 4.18553 5.58102 3.4077 5.19721 2.83199L3.73681 0.641382C3.40181 0.138885 2.756 -0.0530966 2.2009 0.184802L1.54211 0.467143C1.04165 0.681625 0.633408 1.06655 0.389907 1.55356C0.18647 1.96043 0.0287919 2.38889 0.00742809 2.84329C-0.0598977 4.27527 0.254099 7.80324 4.18379 11.7329C8.11349 15.6626 11.6414 15.9766 13.0734 15.9093C13.5278 15.8879 13.9563 15.7302 14.3632 15.5268C14.8502 15.2833 15.2351 14.8751 15.4496 14.3746L15.7319 13.7158C15.9698 13.1607 15.7778 12.5149 15.2753 12.1799L13.0847 10.7195C12.509 10.3357 11.7312 10.4913 11.3474 11.067Z" fill="#575757"/>
</svg>
