<svg width="171" height="54" viewBox="0 0 171 54" fill="none" xmlns="http://www.w3.org/2000/svg">
<g clip-path="url(#clip0_10070_27413)">
<path d="M137.058 1.05199C137.14 0.969962 137.218 0.937149 137.287 0.937149C137.408 0.937149 137.494 1.04583 137.49 1.17503C137.486 1.255 137.453 1.33908 137.375 1.41495C134.368 5.16151 132.179 9.54377 132.179 15.6199C132.179 21.6919 134.368 25.988 137.375 29.7346C137.451 29.8104 137.486 29.9007 137.49 29.9745C137.492 30.1057 137.408 30.2144 137.287 30.2144C137.22 30.2144 137.14 30.1816 137.058 30.0996L124.232 17.6767C123.591 17.1292 123.184 16.4873 123.184 15.5768C123.184 14.6622 123.593 14.0224 124.232 13.4769L137.058 1.05199Z" fill="#E30613"/>
<path d="M146.916 0C141.895 0 139.934 7.12809 139.934 15.6199C139.934 24.1157 141.895 31.1475 146.916 31.1475C149.93 31.1475 152.498 29.3798 152.506 27.9259C152.506 27.608 152.385 27.3045 152.119 27.0379C150.692 25.6558 150.135 24.2757 150.127 23.0556C150.118 20.7281 152.135 18.9953 153.99 18.9953C156.546 18.9953 158.051 21.007 158.051 23.6092C158.051 26.0762 157 28.133 155.86 29.7776C155.815 29.8453 155.796 29.9191 155.796 29.9847C155.796 30.1119 155.872 30.2185 155.987 30.2185C156.056 30.2185 156.138 30.1816 156.224 30.0934L169.052 17.6705C169.691 17.123 170.101 16.4811 170.101 15.5707C170.101 14.6561 169.691 14.0163 169.052 13.4708L156.224 1.04378C156.136 0.957657 156.056 0.918694 155.987 0.918694C155.87 0.918694 155.796 1.02738 155.796 1.15657C155.796 1.22219 155.815 1.29602 155.86 1.36574C157 3.00832 158.051 5.06718 158.051 7.53002C158.051 10.1323 156.544 12.1461 153.99 12.1461C152.133 12.1461 150.118 10.4112 150.127 8.0837C150.133 6.86766 150.692 5.48346 152.119 4.10337C152.385 3.83473 152.506 3.53328 152.506 3.21543C152.498 1.77177 149.928 0 146.916 0Z" fill="#004F9F"/>
<path d="M17.1159 20.7076C17.1138 19.4115 17.6851 18.3616 18.6454 17.6541C19.6057 16.9467 20.9449 16.5693 22.499 16.5693C23.4716 16.5714 24.4708 16.7477 25.1629 17.0471V15.5932C25.1404 14.127 24.5855 13.2944 22.9433 13.276C22.6362 13.276 21.9482 13.358 21.3851 13.5487C21.4383 13.7579 21.4711 13.9752 21.4711 14.1844C21.4711 14.6745 21.3155 15.1257 21.0206 15.4579C20.7258 15.7901 20.2896 15.9931 19.7614 15.9931C18.8154 15.991 18.0987 15.22 18.0967 14.2562C18.1171 12.4762 20.2733 11.2786 23.1542 11.2786C25.4393 11.2786 26.8747 11.8221 27.6405 12.8084C28.3367 13.6943 28.3694 14.9883 28.3715 16.8134V21.5688C28.3838 22.4916 28.9059 22.7418 30.0505 22.9182L30.1816 22.9346L30.1734 23.0679C30.1079 24.3229 29.1844 24.8417 28.1934 24.9217C28.1074 24.9299 28.0214 24.9319 27.9374 24.9319C26.9648 24.934 26.025 24.4562 25.5765 23.4801C24.9643 23.9968 23.5822 24.9627 21.7946 24.9627C19.1368 24.9627 17.12 23.1663 17.1159 20.7076ZM98.6737 24.3434C98.4362 24.0112 98.3072 23.5908 98.1945 23.1068C98.0615 23.2565 97.9079 23.4165 97.6724 23.6421C96.8042 24.4562 95.6699 24.9483 94.3901 24.9483C92.9957 24.9483 91.8081 24.4131 91.0505 23.519C89.8874 22.1307 89.8977 20.3672 89.8956 17.8653V15.4538C89.8711 14.4777 89.5639 14.1455 88.6609 14.1208C88.5442 14.1208 88.4152 14.129 88.278 14.1434L88.1695 14.1557L88.1286 14.0532C88.0569 13.8748 88.0241 13.7005 88.0241 13.5344C88.0528 12.3696 89.5271 11.7441 90.3932 11.5657C90.6963 11.5206 90.9809 11.4714 91.2573 11.4714C91.9637 11.4693 92.4858 11.697 92.8114 12.105C93.139 12.5131 93.2701 13.075 93.2701 13.7271L93.2476 17.8448C93.2476 19.3644 93.354 20.5025 93.6919 21.2346C94.0318 21.9605 94.5457 22.3009 95.4917 22.3112C96.5217 22.3071 97.1441 21.8641 97.5414 21.2018C97.9386 20.5374 98.084 19.6453 98.084 18.7881V15.4558C98.0594 14.4797 97.7502 14.1455 96.8472 14.1229C96.7285 14.1229 96.6015 14.1311 96.4643 14.1455L96.3558 14.1578L96.3148 14.0552C96.2452 13.8768 96.2104 13.7025 96.2104 13.5364C96.2391 12.3716 97.7113 11.7462 98.5815 11.5678C98.8825 11.5227 99.1692 11.4734 99.4477 11.4734C100.154 11.4714 100.674 11.699 101.004 12.1071C101.334 12.5152 101.465 13.0771 101.465 13.7271C101.465 14.1988 101.42 15.0375 101.42 18.5441C101.42 20.0267 101.395 20.8142 101.395 21.0541C101.417 22.0651 101.757 22.5183 102.691 22.5368C102.789 22.5368 102.894 22.5285 103.008 22.5183L103.115 22.506L103.156 22.6085C103.225 22.7869 103.26 22.9551 103.26 23.115C103.223 24.2532 101.747 24.7104 100.889 24.8807C100.592 24.9258 100.32 24.9709 100.08 24.9709C100.074 24.9709 100.068 24.9709 100.062 24.9709C99.4006 24.9688 98.9542 24.7371 98.6737 24.3434ZM51.9619 18.335C51.9619 16.2884 52.6335 14.5228 53.8108 13.2698C54.9862 12.0148 56.6672 11.2766 58.6575 11.2786C60.4696 11.2766 61.8129 11.9512 62.6933 12.9151C63.5738 13.8789 63.9935 15.1257 63.9935 16.2761C63.9935 16.9549 63.8502 17.5885 63.5533 18.1217L63.5144 18.1955H55.4162C55.5513 20.5558 57.0522 22.2045 59.6629 22.2148C61.2702 22.2189 62.507 21.333 62.9185 20.8039L63.0046 20.6932L63.1172 20.7773C63.3506 20.9454 63.6025 21.251 63.5963 21.8395C63.5881 23.1991 61.9971 24.9422 58.4691 24.9463C54.8817 24.9381 51.968 22.0774 51.9619 18.335ZM80.663 24.9217C78.8366 24.9217 77.1739 24.2347 75.9658 23.033C74.7598 21.8334 74.0145 20.117 74.0145 18.0766C74.0206 14.0347 77.1964 11.2848 80.7797 11.2786C82.7086 11.2786 84.3815 11.9656 85.565 13.1632C86.7526 14.3608 87.4488 16.0649 87.4488 18.0766C87.4488 20.0944 86.7219 21.8108 85.5056 23.0187C84.2893 24.2244 82.5919 24.9217 80.663 24.9217ZM105.478 24.5156C104.915 24.3618 104.552 24.0542 104.554 23.5887C104.554 23.4062 104.61 23.2114 104.706 22.9981L104.737 22.9325L104.806 22.9182C105.017 22.8751 105.384 22.7664 105.689 22.5183C106.025 22.2435 106.156 21.858 106.156 20.7773V15.3307C106.131 14.4141 105.922 14.0921 105.158 14.0716C104.986 14.0716 104.786 14.0942 104.552 14.1372L104.436 14.1578L104.391 14.0491C104.311 13.844 104.272 13.6492 104.272 13.4667C104.292 12.3778 105.482 11.8159 106.28 11.5657C106.606 11.4693 106.891 11.4181 107.183 11.4181C108.269 11.416 108.86 12.1973 109.11 13.2042C109.823 12.0333 110.957 11.2602 112.075 11.254C113.126 11.2561 114.18 11.943 114.184 13.2493C114.182 14.1762 113.529 15.1482 112.44 15.1544C111.631 15.1544 110.918 14.6192 110.763 13.8317C110.144 14.0347 109.276 14.8099 109.266 17.4942V20.7793C109.27 21.8559 109.422 22.2456 109.725 22.5183C110.042 22.7562 110.685 22.8772 110.91 22.9202L110.982 22.9346L111.012 23.0023C111.119 23.234 111.178 23.4431 111.178 23.64C111.18 24.0788 110.853 24.3823 110.325 24.5259C109.79 24.6838 109.01 24.7433 107.951 24.7433C106.868 24.7433 106.047 24.6797 105.478 24.5156ZM66.2541 24.5156C65.6889 24.3598 65.3245 24.0501 65.3265 23.5846C65.3265 23.4042 65.3798 23.2094 65.476 23.0002L65.5067 22.9346L65.5784 22.9202C65.7975 22.8772 66.1517 22.7705 66.4732 22.5244C66.7987 22.2456 66.9339 21.86 66.938 20.7793V13.6205L65.0173 13.5528L64.9825 13.4667C64.8842 13.2309 64.8351 13.0053 64.8351 12.792C64.8372 12.0948 65.3757 11.6293 66.0493 11.6293H66.8888V10.8357C66.8888 8.92037 67.2451 7.83147 67.7304 7.09939C68.4778 5.93461 69.778 5.13486 71.756 5.13691C74.2458 5.13896 76.3303 6.29758 76.3426 8.15958C76.3405 8.96549 75.7815 9.96621 74.6103 9.96826C73.736 9.96416 72.9272 9.23412 72.9231 8.30312C72.9252 7.96066 73.0378 7.6141 73.2077 7.35777C72.9477 7.1281 72.4481 6.9907 71.9669 6.99275C71.1929 6.99891 70.7711 7.26344 70.5028 7.70843C70.2346 8.15342 70.1445 8.80553 70.1466 9.54377V11.6026H73.4432L73.4801 11.6908C73.5783 11.9307 73.6254 12.1625 73.6234 12.3798C73.6254 13.0955 73.1156 13.6328 72.4726 13.6923C72.229 13.7169 71.9669 13.7169 71.7335 13.7169C71.1847 13.7169 70.6421 13.6779 70.2387 13.6697V20.7732C70.2408 21.8477 70.4189 22.2312 70.7424 22.5121C71.0311 22.7439 71.8481 22.871 72.0877 22.9141L72.1594 22.9264L72.1901 22.994C72.2781 23.1868 72.3252 23.3632 72.3252 23.5354C72.3252 24.0255 71.9259 24.3372 71.3219 24.5013C70.7117 24.6735 69.8415 24.7392 68.7358 24.7392C67.6526 24.7433 66.8295 24.6797 66.2541 24.5156ZM43.2452 24.5156C42.6842 24.3618 42.3238 24.0522 42.3238 23.5887C42.3259 23.4062 42.3791 23.2114 42.4753 23.0002L42.5061 22.9325L42.5777 22.9182C42.7968 22.8751 43.149 22.7685 43.4705 22.5224C43.7981 22.2435 43.9312 21.858 43.9353 20.7773V15.3307C43.9087 14.4141 43.6937 14.0921 42.934 14.0716C42.76 14.0716 42.5593 14.0942 42.3279 14.1372L42.2112 14.1578L42.1682 14.0491C42.0843 13.842 42.0453 13.643 42.0453 13.4564C42.0658 12.3716 43.2555 11.8159 44.0581 11.5657C44.3735 11.4693 44.6683 11.4181 44.9447 11.4181C46.0402 11.416 46.6299 12.1871 46.8859 13.1796C47.6025 12.023 48.741 11.2581 49.8569 11.254C50.893 11.2561 51.9619 11.9389 51.966 13.2473C51.9639 14.1742 51.3107 15.1482 50.2071 15.1523C49.4003 15.1523 48.6959 14.6171 48.5444 13.8297C47.922 14.0347 47.0374 14.8099 47.0292 17.4921V20.7773C47.0333 21.8539 47.191 22.2415 47.5124 22.5162C47.8155 22.7541 48.4584 22.8751 48.6918 22.9182L48.7635 22.9325L48.7942 23.0002C48.8987 23.2278 48.956 23.4349 48.956 23.6318C48.9621 24.0727 48.6284 24.3762 48.098 24.5238C47.5616 24.6838 46.7794 24.7433 45.7167 24.7433C44.6335 24.7433 43.8145 24.6797 43.2452 24.5156ZM32.3725 24.5156C31.8115 24.3618 31.4531 24.0522 31.4531 23.5887C31.4531 23.4062 31.5064 23.2114 31.6047 23.0002L31.6354 22.9325L31.707 22.9182C31.9261 22.8751 32.2804 22.7685 32.6018 22.5224C32.9294 22.2435 33.0625 21.858 33.0666 20.7773V15.3307C33.038 14.4141 32.825 14.0921 32.0633 14.0716C31.8913 14.0716 31.6907 14.0942 31.4593 14.1372L31.3426 14.1578L31.2996 14.0491C31.2156 13.842 31.1767 13.643 31.1767 13.4564C31.1972 12.3716 32.3848 11.8159 33.1915 11.5657C33.5069 11.4693 33.8017 11.4181 34.0741 11.4181C35.1695 11.416 35.7613 12.1871 36.0172 13.1755C36.7339 12.023 37.8723 11.2581 38.9883 11.254C40.0264 11.2561 41.0932 11.941 41.0973 13.2493C41.0953 14.1762 40.44 15.1503 39.3384 15.1544C38.5337 15.1544 37.8253 14.6192 37.6737 13.8317C37.0513 14.0368 36.1687 14.8119 36.1585 17.4942V20.7793C36.1606 21.8559 36.3162 22.2435 36.6397 22.5183C36.9407 22.7562 37.5857 22.8772 37.8191 22.9202L37.8908 22.9346L37.9215 23.0023C38.0259 23.2319 38.0853 23.437 38.0853 23.6339C38.0894 24.0747 37.7577 24.3782 37.2253 24.5259C36.6888 24.6858 35.9067 24.7453 34.844 24.7453C33.7608 24.7433 32.9417 24.6797 32.3725 24.5156ZM77.7165 17.7033C77.7227 21.2817 79.2768 22.8218 80.8023 22.8259C82.5448 22.8238 83.8061 21.2838 83.8163 18.2714C83.8184 16.6985 83.4682 15.4394 82.901 14.5884C82.3318 13.7333 81.5558 13.2801 80.663 13.2801C78.8529 13.2821 77.7268 14.9186 77.7165 17.7033ZM23.0621 18.4559C21.6267 18.4703 20.6623 19.145 20.6541 20.482C20.6623 21.7431 21.512 22.5921 22.8512 22.6003C23.7173 22.6024 24.6039 22.1225 25.1629 21.4273V19.5797C25.1629 19.3275 24.9971 19.0527 24.6428 18.8312C24.2886 18.6118 23.7521 18.4559 23.0621 18.4559ZM60.2239 16.2945C60.4819 16.2884 60.5515 16.231 60.6007 16.1469C60.6519 16.0567 60.6662 15.8844 60.6641 15.6691C60.6375 14.4284 59.6752 13.278 58.1886 13.278C56.3171 13.278 55.5595 14.7771 55.4407 16.2925L60.2239 16.2945ZM2.5984 22.5737C1.01766 20.9516 0 18.5831 0 15.6322C0 12.8084 0.995132 10.4276 2.54926 8.75427C4.10338 7.08093 6.2165 6.11302 8.44634 6.11302C12.4432 6.11917 15.2669 8.92037 15.2812 11.3422C15.2792 12.6362 14.4622 13.6389 13.3524 13.641C12.8057 13.641 12.2938 13.4544 11.917 13.0996C11.5403 12.7449 11.3089 12.2281 11.3089 11.5965C11.3068 10.8398 11.6959 10.3804 11.9846 10.0503C11.4584 9.13774 10.4182 8.38515 8.78828 8.38105C7.40206 8.3831 6.23493 9.10083 5.39542 10.3702C4.5559 11.6375 4.05834 13.4585 4.05834 15.6096C4.05834 17.7567 4.57638 19.5715 5.43842 20.8327C6.3025 22.0979 7.49216 22.8115 8.88043 22.8156C10.5103 22.8115 11.5505 22.0692 12.0747 21.1485C11.7839 20.8265 11.399 20.3631 11.399 19.6105C11.399 18.9789 11.6303 18.4559 12.0071 18.1012C12.3839 17.7485 12.8958 17.5598 13.4425 17.5598C14.5502 17.5598 15.3672 18.5564 15.3693 19.8483C15.357 22.2825 12.5333 25.0714 8.53643 25.0796C6.31479 25.0796 4.1771 24.1978 2.5984 22.5737ZM2.5984 22.5737C1.01766 20.9516 0 18.5831 0 15.6322C0 12.8084 0.995132 10.4276 2.54926 8.75427C4.10338 7.08093 6.2165 6.11302 8.44634 6.11302C12.4432 6.11917 15.2669 8.92037 15.2812 11.3422C15.2792 12.6362 14.4622 13.6389 13.3524 13.641C12.8057 13.641 12.2938 13.4544 11.917 13.0996C11.5403 12.7449 11.3089 12.2281 11.3089 11.5965C11.3068 10.8398 11.6959 10.3804 11.9846 10.0503C11.4584 9.13774 10.4182 8.38515 8.78828 8.38105C7.40206 8.3831 6.23493 9.10083 5.39542 10.3702C4.5559 11.6375 4.05834 13.4585 4.05834 15.6096C4.05834 17.7567 4.57638 19.5715 5.43842 20.8327C6.3025 22.0979 7.49216 22.8115 8.88043 22.8156C10.5103 22.8115 11.5505 22.0692 12.0747 21.1485C11.7839 20.8265 11.399 20.3631 11.399 19.6105C11.399 18.9789 11.6303 18.4559 12.0071 18.1012C12.3839 17.7485 12.8958 17.5598 13.4425 17.5598C14.5502 17.5598 15.3672 18.5564 15.3693 19.8483C15.357 22.2825 12.5333 25.0714 8.53643 25.0796C6.31479 25.0796 4.1771 24.1978 2.5984 22.5737ZM2.5984 22.5737C1.01766 20.9516 0 18.5831 0 15.6322C0 12.8084 0.995132 10.4276 2.54926 8.75427C4.10338 7.08093 6.2165 6.11302 8.44634 6.11302C12.4432 6.11917 15.2669 8.92037 15.2812 11.3422C15.2792 12.6362 14.4622 13.6389 13.3524 13.641C12.8057 13.641 12.2938 13.4544 11.917 13.0996C11.5403 12.7449 11.3089 12.2281 11.3089 11.5965C11.3068 10.8398 11.6959 10.3804 11.9846 10.0503C11.4584 9.13774 10.4182 8.38515 8.78828 8.38105C7.40206 8.3831 6.23493 9.10083 5.39542 10.3702C4.5559 11.6375 4.05834 13.4585 4.05834 15.6096C4.05834 17.7567 4.57638 19.5715 5.43842 20.8327C6.3025 22.0979 7.49216 22.8115 8.88043 22.8156C10.5103 22.8115 11.5505 22.0692 12.0747 21.1485C11.7839 20.8265 11.399 20.3631 11.399 19.6105C11.399 18.9789 11.6303 18.4559 12.0071 18.1012C12.3839 17.7485 12.8958 17.5598 13.4425 17.5598C14.5502 17.5598 15.3672 18.5564 15.3693 19.8483C15.357 22.2825 12.5333 25.0714 8.53643 25.0796C6.31479 25.0796 4.1771 24.1978 2.5984 22.5737Z" fill="#004F9F"/>
<path d="M136.52 52.4702H123.352V52.7963H136.52V52.4702Z" fill="#004F9F"/>
<path d="M170.059 52.4702H156.895V52.7963H170.059V52.4702Z" fill="#004F9F"/>
<path d="M130.928 49.021H123.395V48.7544C124.431 48.6991 124.613 48.4735 124.613 47.4092V41.3638C124.613 40.2831 124.486 40.0883 123.395 40.0043V39.7377H127.357V40.0043C126.208 40.074 126.04 40.2565 126.04 41.3372V47.8439C126.04 48.3771 126.278 48.4755 127.301 48.4755H128.282C129.417 48.4755 130.172 48.2233 130.649 47.6204C130.831 47.3825 131.014 47.0729 131.237 46.5828H131.601L130.928 49.021Z" fill="#004F9F"/>
<path d="M137.271 48.4878C136.852 49.021 136.487 49.1605 136.012 49.1605C135.494 49.1605 135.185 48.8795 135.115 48.1372H135.101C134.36 48.9779 133.674 49.1605 133.07 49.1605C132.202 49.1605 131.6 48.6273 131.6 47.7024C131.6 46.9724 132.034 46.4269 132.58 46.0619C133 45.781 133.518 45.5144 135.101 44.9258V44.1691C135.101 43.2997 134.638 42.9059 134.01 42.9059C133.451 42.9059 133.029 43.2156 133.029 43.5929C133.029 43.8451 133.113 43.8882 133.113 44.1815C133.113 44.448 132.832 44.7556 132.47 44.7556C132.175 44.7556 131.868 44.4891 131.868 44.1097C131.868 43.7447 132.091 43.2956 132.582 42.988C132.974 42.7357 133.563 42.5676 134.192 42.5676C134.976 42.5676 135.508 42.7911 135.844 43.1992C136.18 43.6052 136.235 43.9005 136.235 44.7556V47.4338C136.235 48.0798 136.418 48.3586 136.669 48.3586C136.893 48.3586 137.034 48.2889 137.271 48.0921V48.4878ZM135.101 45.2622C134.233 45.5718 133.659 45.865 133.309 46.189C132.974 46.4966 132.832 46.833 132.832 47.2697C132.832 48.0141 133.252 48.3504 133.799 48.3504C134.079 48.3504 134.372 48.2807 134.612 48.1249C135.019 47.8439 135.101 47.6491 135.101 47.241V45.2622Z" fill="#004F9F"/>
<path d="M138.741 43.7488C139.036 43.0331 139.778 42.5717 140.631 42.5717C142.13 42.5717 143.152 43.9169 143.152 45.6579C143.152 47.7332 141.725 49.1646 139.876 49.1646C138.741 49.1646 137.564 48.7155 137.564 48.2397V41.087C137.564 40.3857 137.451 40.2729 136.878 40.2729C136.78 40.2729 136.71 40.2872 136.641 40.3016V40.0637L137.06 39.9366C137.718 39.7397 138.082 39.6556 138.672 39.4444L138.741 39.4731V43.7488ZM138.741 47.9834C138.741 48.4325 139.372 48.7134 140.101 48.7134C140.648 48.7134 141.096 48.5022 141.403 48.1105C141.739 47.6901 141.921 47.0729 141.921 46.2588C141.921 45.418 141.725 44.6039 141.375 44.1138C141.08 43.6934 140.633 43.4535 140.128 43.4535C139.384 43.4535 138.741 43.9723 138.741 44.5608V47.9834Z" fill="#004F9F"/>
<path d="M148.838 46.8207C148.291 48.3505 147.312 49.1625 145.912 49.1625C144.259 49.1625 143.252 47.9137 143.252 45.9778C143.252 44.001 144.386 42.5696 146.151 42.5696C147.02 42.5696 147.65 42.9059 148.099 43.5376C148.379 43.9292 148.518 44.3783 148.574 45.1371H144.261C144.331 46.2034 144.401 46.7489 144.904 47.4236C145.298 47.9424 145.813 48.1946 146.458 48.1946C147.396 48.1946 147.929 47.7599 148.615 46.7222L148.838 46.8207ZM147.144 44.688C146.991 43.5519 146.696 43.0762 145.773 43.0762C144.988 43.0762 144.442 43.638 144.288 44.688H147.144Z" fill="#004F9F"/>
<path d="M148.712 49.021V48.8118C149.595 48.7421 149.791 48.5022 149.791 47.7311V41.1547C149.791 40.4821 149.652 40.2565 149.204 40.2565C149.091 40.2565 148.909 40.2565 148.686 40.2852V40.0617C149.652 39.8238 150.17 39.6823 150.899 39.4444L150.969 39.4998V47.8029C150.969 48.574 151.122 48.7565 152.019 48.8118V49.0231H148.712V49.021Z" fill="#004F9F"/>
<path d="M161.112 40.0043C160.551 40.0186 160.229 40.2421 159.824 41.2798L156.716 49.1769H156.505L153.087 41.5464C152.485 40.1868 152.274 40.0186 151.574 40.0043V39.7377H155.284V40.0043L154.893 40.033C154.445 40.0617 154.263 40.1868 154.263 40.4677C154.263 40.6912 154.39 41.0275 154.809 41.9688L156.939 46.7653L158.997 41.5915C159.165 41.1711 159.263 40.8204 159.263 40.5825C159.263 40.035 158.815 40.0637 158.256 40.0084V39.7418H161.112V40.0043Z" fill="#004F9F"/>
<path d="M161.193 49.021V48.8118C162.16 48.7565 162.299 48.6293 162.299 47.563V44.3783C162.299 43.7201 162.186 43.4945 161.836 43.4945C161.709 43.4945 161.501 43.4945 161.249 43.5642V43.3407L163.419 42.5696L163.474 42.625V47.5486C163.474 48.5863 163.587 48.7401 164.51 48.8098V49.021H161.193Z" fill="#004F9F"/>
<path d="M170.1 46.8207C169.553 48.3505 168.574 49.1625 167.173 49.1625C165.521 49.1625 164.514 47.9137 164.514 45.9778C164.514 44.001 165.648 42.5696 167.413 42.5696C168.281 42.5696 168.912 42.9059 169.36 43.5376C169.641 43.9292 169.78 44.3783 169.837 45.1371H165.525C165.595 46.2034 165.664 46.7489 166.17 47.4236C166.563 47.9424 167.081 48.1946 167.724 48.1946C168.662 48.1946 169.194 47.7599 169.88 46.7222L170.1 46.8207ZM168.404 44.688C168.251 43.5519 167.956 43.0762 167.032 43.0762C166.248 43.0762 165.701 43.638 165.548 44.688H168.404Z" fill="#004F9F"/>
<path d="M162.912 38.333C162.912 38.333 162.359 38.2838 162.611 39.1737C162.731 39.5941 162.875 39.6085 162.912 40.0473C162.912 40.0432 162.912 40.033 162.912 40.0268C162.912 40.033 162.912 40.0432 162.912 40.0473C162.949 39.6085 163.092 39.5941 163.213 39.1737C163.467 38.2838 162.912 38.333 162.912 38.333Z" fill="#004F9F"/>
<path d="M161.48 39.0261C161.48 39.0261 161.101 39.4342 161.959 39.7787C162.364 39.9428 162.463 39.8361 162.833 40.0781C162.829 40.0761 162.823 40.0699 162.817 40.0658C162.823 40.0699 162.829 40.0761 162.833 40.0781C162.51 39.7787 162.588 39.6577 162.327 39.305C161.783 38.5585 161.48 39.0261 161.48 39.0261Z" fill="#004F9F"/>
<path d="M161.148 40.5825C161.148 40.5825 161.236 41.1321 162.034 40.6666C162.413 40.4472 162.391 40.3037 162.806 40.1601C162.802 40.1601 162.792 40.1622 162.786 40.1642C162.792 40.1622 162.802 40.1601 162.806 40.1581C162.372 40.2298 162.323 40.0945 161.887 40.0822C160.964 40.0576 161.148 40.5825 161.148 40.5825Z" fill="#004F9F"/>
<path d="M162.171 41.8006C162.171 41.8006 162.659 42.0672 162.781 41.1506C162.839 40.7158 162.714 40.6461 162.855 40.2298C162.853 40.2339 162.849 40.2421 162.847 40.2483C162.849 40.2421 162.853 40.2339 162.855 40.2298C162.646 40.6174 162.509 40.5723 162.231 40.9106C161.643 41.6243 162.171 41.8006 162.171 41.8006Z" fill="#004F9F"/>
<path d="M163.724 41.7596C163.724 41.7596 164.238 41.5505 163.607 40.8737C163.308 40.5538 163.175 40.6072 162.941 40.2339C162.944 40.238 162.948 40.2463 162.95 40.2524C162.946 40.2463 162.942 40.238 162.939 40.2339C163.107 40.642 162.987 40.7199 163.07 41.1485C163.253 42.057 163.724 41.7596 163.724 41.7596Z" fill="#004F9F"/>
<path d="M164.687 40.5497C164.687 40.5497 164.852 40.0186 163.931 40.076C163.495 40.1027 163.45 40.2401 163.014 40.1827C163.018 40.1847 163.026 40.1868 163.034 40.1868C163.028 40.1847 163.018 40.1827 163.014 40.1827C163.435 40.3139 163.417 40.4554 163.802 40.6646C164.615 41.1013 164.687 40.5497 164.687 40.5497Z" fill="#004F9F"/>
<path d="M164.347 38.9625C164.347 38.9625 164.028 38.5073 163.512 39.2763C163.268 39.6392 163.35 39.7582 163.039 40.0699C163.043 40.0678 163.049 40.0617 163.055 40.0576C163.051 40.0617 163.043 40.0678 163.041 40.0719C163.399 39.8156 163.504 39.9181 163.901 39.7377C164.743 39.3542 164.347 38.9625 164.347 38.9625Z" fill="#004F9F"/>
<path d="M162.902 40.3857C162.769 40.3857 162.662 40.277 162.662 40.1457C162.662 40.0125 162.771 39.9058 162.902 39.9058C163.035 39.9058 163.141 40.0145 163.141 40.1457C163.143 40.277 163.035 40.3857 162.902 40.3857ZM162.902 40.0371C162.842 40.0371 162.793 40.0863 162.793 40.1457C162.793 40.2052 162.842 40.2544 162.902 40.2544C162.961 40.2544 163.01 40.2052 163.01 40.1457C163.01 40.0842 162.961 40.0371 162.902 40.0371Z" fill="#004F9F"/>
<path d="M139.899 53.6063C139.645 53.3479 139.516 53.0218 139.516 52.6322C139.516 52.2344 139.649 51.9083 139.917 51.6499C140.185 51.3875 140.509 51.2583 140.888 51.2583C141.111 51.2583 141.322 51.3054 141.518 51.3936C141.715 51.4838 141.877 51.6048 141.995 51.7525L141.756 51.9637C141.53 51.7094 141.244 51.5802 140.892 51.5802C140.599 51.5802 140.351 51.6807 140.154 51.8776C139.958 52.0744 139.858 52.3287 139.858 52.6343C139.858 52.9316 139.954 53.1818 140.15 53.3807C140.347 53.5776 140.591 53.6739 140.881 53.6739C141.207 53.6739 141.526 53.5263 141.752 53.2864V52.7347H140.842V52.4251H142.067V53.4299C141.741 53.8072 141.344 53.9918 140.867 53.9918C140.476 53.9938 140.152 53.8647 139.899 53.6063Z" fill="#004F9F"/>
<path d="M143.905 53.9528L143.196 52.8598H142.824V53.9528H142.494V51.3034H143.375C143.637 51.3034 143.837 51.3813 143.979 51.5372C144.122 51.691 144.194 51.8735 144.194 52.0847C144.194 52.261 144.14 52.4189 144.03 52.5625C143.919 52.706 143.766 52.7983 143.565 52.8393L144.316 53.9549H143.905V53.9528ZM142.824 51.6233V52.544H143.303C143.676 52.544 143.854 52.339 143.854 52.0785C143.854 51.8201 143.682 51.6233 143.377 51.6233H142.824Z" fill="#004F9F"/>
<path d="M145.054 51.6623C145.322 51.3936 145.645 51.2583 146.02 51.2583C146.397 51.2583 146.718 51.3936 146.987 51.6623C147.255 51.9309 147.388 52.2549 147.388 52.6302C147.388 53.0075 147.251 53.3294 146.982 53.5981C146.714 53.8626 146.389 53.9959 146.006 53.9959C145.623 53.9959 145.301 53.8667 145.039 53.6042C144.781 53.3438 144.652 53.0239 144.652 52.6445C144.652 52.261 144.785 51.9309 145.054 51.6623ZM146.747 53.3766C146.944 53.1797 147.044 52.9316 147.044 52.6343C147.044 52.3369 146.944 52.0847 146.747 51.8858C146.55 51.6848 146.307 51.5843 146.02 51.5843C145.733 51.5843 145.49 51.6848 145.293 51.8899C145.097 52.0908 144.996 52.339 144.996 52.6363C144.996 52.9296 145.093 53.1777 145.289 53.3786C145.486 53.5755 145.729 53.676 146.02 53.676C146.309 53.6739 146.55 53.5735 146.747 53.3766Z" fill="#004F9F"/>
<path d="M147.822 51.3034H148.152V53.0034C148.152 53.4381 148.373 53.6739 148.772 53.6739C149.159 53.6739 149.385 53.4238 149.385 53.0034V51.3034H149.718V53.071C149.718 53.3581 149.632 53.5837 149.46 53.7519C149.288 53.918 149.059 54 148.772 54C148.486 54 148.256 53.918 148.082 53.7519C147.91 53.5837 147.824 53.3581 147.824 53.071V51.3034H147.822Z" fill="#004F9F"/>
<path d="M151.011 51.3034C151.287 51.3034 151.494 51.3813 151.637 51.5433C151.785 51.7053 151.857 51.894 151.857 52.1134C151.857 52.3349 151.781 52.5256 151.627 52.6876C151.478 52.8455 151.263 52.9234 150.98 52.9234H150.47V53.9528H150.141V51.3034H151.011ZM150.982 52.6117C151.341 52.6117 151.523 52.382 151.523 52.1072C151.523 51.8386 151.347 51.6192 151.031 51.6192H150.468V52.6117H150.982Z" fill="#004F9F"/>
<path d="M153.77 52.7122H152.712V53.7006H153.895V53.9959H152.354V51.2583H153.836V51.5536H152.712V52.4189H153.77V52.7122Z" fill="#004F9F"/>
</g>
<defs>
<clipPath id="clip0_10070_27413">
<rect width="170.1" height="54" fill="white"/>
</clipPath>
</defs>
</svg>
