<svg width="39" height="26" viewBox="0 0 39 26" fill="none" xmlns="http://www.w3.org/2000/svg">
<g clip-path="url(#clip0_10164_11201)">
<path d="M11.3051 1.16779C11.3719 1.10096 11.4353 1.07422 11.492 1.07422C11.5904 1.07422 11.6605 1.16278 11.6572 1.26804C11.6538 1.33321 11.6271 1.40172 11.5638 1.46354C9.11286 4.51629 7.32932 8.08702 7.32932 13.0379C7.32932 17.9855 9.11286 21.486 11.5638 24.5388C11.6255 24.6006 11.6538 24.6741 11.6572 24.7343C11.6588 24.8412 11.5904 24.9298 11.492 24.9298C11.437 24.9298 11.3719 24.903 11.3051 24.8362L0.854225 14.7138C0.332013 14.2677 0 13.7447 0 13.0028C0 12.2576 0.333681 11.7363 0.854225 11.2918L11.3051 1.16779Z" fill="#E30613"/>
<path d="M19.3369 0.310547C15.2459 0.310547 13.6476 6.11862 13.6476 13.0378C13.6476 19.9604 15.2459 25.69 19.3369 25.69C21.7928 25.69 23.885 24.2496 23.8916 23.065C23.8916 22.806 23.7932 22.5587 23.5763 22.3415C22.4134 21.2153 21.9596 20.0907 21.9529 19.0966C21.9463 17.2001 23.5897 15.7882 25.1012 15.7882C27.1834 15.7882 28.4097 17.4273 28.4097 19.5477C28.4097 21.5578 27.5538 23.2337 26.6245 24.5738C26.5878 24.6289 26.5728 24.6891 26.5728 24.7426C26.5728 24.8461 26.6345 24.933 26.7279 24.933C26.7847 24.933 26.8514 24.903 26.9215 24.8311L37.3741 14.7088C37.8946 14.2626 38.2283 13.7396 38.2283 12.9977C38.2283 12.2525 37.8946 11.7312 37.3741 11.2867L26.9215 1.16104C26.8497 1.09086 26.7847 1.05911 26.7279 1.05911C26.6328 1.05911 26.5728 1.14767 26.5728 1.25294C26.5728 1.30641 26.5878 1.36656 26.6245 1.42337C27.5538 2.76177 28.4097 4.43936 28.4097 6.44612C28.4097 8.5665 27.1817 10.2073 25.1012 10.2073C23.588 10.2073 21.9463 8.79374 21.9529 6.89726C21.9579 5.90641 22.4134 4.77855 23.5763 3.65403C23.7932 3.43514 23.8916 3.18952 23.8916 2.93053C23.885 1.75421 21.7911 0.310547 19.3369 0.310547Z" fill="#004F9F"/>
</g>
<defs>
<clipPath id="clip0_10164_11201">
<rect width="38.2283" height="25.3794" fill="white" transform="translate(0 0.310547)"/>
</clipPath>
</defs>
</svg>
