<svg width="68" height="80" viewBox="0 0 68 80" fill="none" xmlns="http://www.w3.org/2000/svg">
<g filter="url(#filter0_d_1_48)">
<path d="M51.5 32.8649C51.5 35.067 50.4247 38.0862 48.7408 41.4345C47.0671 44.7625 44.8305 48.3432 42.5865 51.6442C40.3437 54.9433 38.0999 57.9537 36.4164 60.1399C35.5748 61.2327 34.8736 62.119 34.3831 62.7317C34.2357 62.9158 34.1074 63.0752 34 63.2081C33.8926 63.0752 33.7643 62.9158 33.6169 62.7317C33.1264 62.119 32.4252 61.2327 31.5836 60.1399C29.9001 57.9537 27.6563 54.9433 25.4135 51.6442C23.1695 48.3432 20.9329 44.7625 19.2592 41.4345C17.5753 38.0862 16.5 35.067 16.5 32.8649C16.5 23.857 24.3038 16.5 34 16.5C43.6962 16.5 51.5 23.857 51.5 32.8649Z" fill="white" stroke="#007934"/>
<rect width="24" height="15" transform="translate(22 25)" fill="white"/>
</g>
<g clip-path="url(#clip0_1_48)">
<path d="M29.0472 25.4961C29.0877 25.4574 29.1283 25.4419 29.1626 25.4419C29.2249 25.4419 29.2665 25.4913 29.2665 25.5543C29.2645 25.5921 29.2457 25.6318 29.2073 25.6686C27.681 27.4399 26.5674 29.5107 26.5674 32.3837C26.5674 35.2519 27.6799 37.282 29.2073 39.0542C29.2457 39.0891 29.2645 39.1318 29.2665 39.1695C29.2665 39.2316 29.2249 39.282 29.1626 39.282C29.1283 39.282 29.0877 39.2664 29.0472 39.2267L22.5323 33.3556C22.2079 33.0949 22 32.7936 22 32.3624C22 31.9302 22.2079 31.6279 22.5323 31.3692L29.0472 25.4961Z" fill="#007934"/>
<path d="M34.0534 25C31.503 25 30.509 28.3692 30.509 32.3837C30.509 36.3982 31.503 39.7228 34.0534 39.7228C35.5828 39.7228 36.8897 38.8885 36.8928 38.2015C36.8928 38.0504 36.8315 37.906 36.6984 37.7829C35.9716 37.1279 35.6888 36.4758 35.6847 35.8992C35.6816 34.7994 36.7046 33.9787 37.6476 33.9787C38.9473 33.9787 39.7115 34.9302 39.7115 36.1599C39.7115 37.3265 39.176 38.2975 38.5969 39.0756C38.5761 39.1075 38.5647 39.1415 38.5647 39.1734C38.5657 39.2345 38.6052 39.2849 38.6614 39.2849C38.6967 39.2849 38.7373 39.2684 38.783 39.2258L45.2978 33.3556C45.6233 33.0949 45.8312 32.7926 45.8312 32.3614C45.8312 31.9302 45.6233 31.6279 45.2978 31.3692L38.783 25.4971C38.7383 25.4554 38.6978 25.4399 38.6614 25.4399C38.6031 25.4399 38.5657 25.4893 38.5647 25.5494C38.5647 25.5804 38.5772 25.6163 38.5969 25.6483C39.176 26.4244 39.7115 27.3963 39.7115 28.561C39.7115 29.7917 38.9473 30.7432 37.6476 30.7432C36.7046 30.7432 35.6826 29.9234 35.6847 28.8236C35.6899 28.249 35.9716 27.594 36.6984 26.9428C36.8315 26.8159 36.8928 26.6734 36.8928 26.5223C36.8887 25.8362 35.5817 25 34.0534 25Z" fill="#007934"/>
</g>
<defs>
<filter id="filter0_d_1_48" x="0" y="0" width="68" height="80" filterUnits="userSpaceOnUse" color-interpolation-filters="sRGB">
<feFlood flood-opacity="0" result="BackgroundImageFix"/>
<feColorMatrix in="SourceAlpha" type="matrix" values="0 0 0 0 0 0 0 0 0 0 0 0 0 0 0 0 0 0 127 0" result="hardAlpha"/>
<feOffset/>
<feGaussianBlur stdDeviation="8"/>
<feColorMatrix type="matrix" values="0 0 0 0 0 0 0 0 0 0 0 0 0 0 0 0 0 0 0.06 0"/>
<feBlend mode="normal" in2="BackgroundImageFix" result="effect1_dropShadow_1_48"/>
<feBlend mode="normal" in="SourceGraphic" in2="effect1_dropShadow_1_48" result="shape"/>
</filter>
<clipPath id="clip0_1_48">
<rect width="23.8312" height="14.7228" fill="white" transform="translate(22 25)"/>
</clipPath>
</defs>
</svg>
