<svg width="68" height="80" viewBox="0 0 68 80" fill="none" xmlns="http://www.w3.org/2000/svg">
<g filter="url(#filter0_d_10088_27460)">
<path d="M51.5 32.8649C51.5 35.067 50.4247 38.0862 48.7408 41.4345C47.0671 44.7625 44.8305 48.3432 42.5865 51.6442C40.3437 54.9433 38.0999 57.9537 36.4164 60.1399C35.5748 61.2327 34.8736 62.119 34.3831 62.7317C34.2357 62.9158 34.1074 63.0752 34 63.2081C33.8926 63.0752 33.7643 62.9158 33.6169 62.7317C33.1264 62.119 32.4252 61.2327 31.5836 60.1399C29.9001 57.9537 27.6563 54.9433 25.4135 51.6442C23.1695 48.3432 20.9329 44.7625 19.2592 41.4345C17.5753 38.0862 16.5 35.067 16.5 32.8649C16.5 23.857 24.3038 16.5 34 16.5C43.6962 16.5 51.5 23.857 51.5 32.8649Z" fill="white" stroke="#EF473A"/>
<g clip-path="url(#clip0_10088_27460)">
<rect width="24" height="15" transform="translate(22 25)" fill="white"/>
<g clip-path="url(#clip1_10088_27460)">
<path d="M29.2151 25.4961C29.2557 25.4573 29.2962 25.4418 29.3305 25.4418C29.3929 25.4418 29.4345 25.4913 29.4345 25.5542C29.4324 25.592 29.4137 25.6318 29.3752 25.6686C27.8489 27.4399 26.7354 29.5106 26.7354 32.3837C26.7354 35.2519 27.8479 37.2819 29.3752 39.0542C29.4137 39.0891 29.4324 39.1317 29.4345 39.1695C29.4345 39.2315 29.3929 39.2819 29.3305 39.2819C29.2962 39.2819 29.2557 39.2664 29.2151 39.2267L22.7003 33.3556C22.3759 33.0949 22.168 32.7936 22.168 32.3624C22.168 31.9302 22.3759 31.6279 22.7003 31.3691L29.2151 25.4961Z" fill="#E30613"/>
<path d="M34.2221 25C31.6717 25 30.6777 28.3692 30.6777 32.3837C30.6777 36.3982 31.6717 39.7228 34.2221 39.7228C35.7515 39.7228 37.0584 38.8885 37.0616 38.2015C37.0616 38.0504 37.0002 37.906 36.8671 37.7829C36.1404 37.1279 35.8576 36.4758 35.8534 35.8992C35.8503 34.7994 36.8734 33.9787 37.8164 33.9787C39.116 33.9787 39.8802 34.9302 39.8802 36.1599C39.8802 37.3265 39.3448 38.2975 38.7656 39.0756C38.7449 39.1075 38.7334 39.1415 38.7334 39.1734C38.7345 39.2345 38.774 39.2849 38.8301 39.2849C38.8655 39.2849 38.906 39.2684 38.9518 39.2258L45.4666 33.3556C45.792 33.0949 46 32.7926 46 32.3614C46 31.9302 45.792 31.6279 45.4666 31.3692L38.9518 25.4971C38.907 25.4554 38.8665 25.4399 38.8301 25.4399C38.7719 25.4399 38.7345 25.4893 38.7334 25.5494C38.7334 25.5804 38.7459 25.6163 38.7656 25.6483C39.3448 26.4244 39.8802 27.3963 39.8802 28.561C39.8802 29.7917 39.116 30.7432 37.8164 30.7432C36.8734 30.7432 35.8513 29.9234 35.8534 28.8236C35.8586 28.249 36.1404 27.594 36.8671 26.9428C37.0002 26.8159 37.0616 26.6734 37.0616 26.5223C37.0574 25.8362 35.7505 25 34.2221 25Z" fill="#E30613"/>
</g>
</g>
</g>
<defs>
<filter id="filter0_d_10088_27460" x="0" y="0" width="68" height="80" filterUnits="userSpaceOnUse" color-interpolation-filters="sRGB">
<feFlood flood-opacity="0" result="BackgroundImageFix"/>
<feColorMatrix in="SourceAlpha" type="matrix" values="0 0 0 0 0 0 0 0 0 0 0 0 0 0 0 0 0 0 127 0" result="hardAlpha"/>
<feOffset/>
<feGaussianBlur stdDeviation="8"/>
<feColorMatrix type="matrix" values="0 0 0 0 0 0 0 0 0 0 0 0 0 0 0 0 0 0 0.06 0"/>
<feBlend mode="normal" in2="BackgroundImageFix" result="effect1_dropShadow_10088_27460"/>
<feBlend mode="normal" in="SourceGraphic" in2="effect1_dropShadow_10088_27460" result="shape"/>
</filter>
<clipPath id="clip0_10088_27460">
<rect width="24" height="15" fill="white" transform="translate(22 25)"/>
</clipPath>
<clipPath id="clip1_10088_27460">
<rect width="23.8312" height="14.7228" fill="white" transform="translate(22.168 25)"/>
</clipPath>
</defs>
</svg>
