<svg width="32" height="31" viewBox="0 0 32 31" fill="none" xmlns="http://www.w3.org/2000/svg">
<path d="M14.694 25.1875H10.0007C9.17398 25.1875 8.44065 25.1617 7.78732 25.0712C4.28065 24.6967 3.33398 23.095 3.33398 18.7292V12.2708C3.33398 7.905 4.28065 6.30333 7.78732 5.92875C8.44065 5.83833 9.17398 5.8125 10.0007 5.8125H14.614" stroke="#2E2E2E" stroke-width="1.5" stroke-linecap="round" stroke-linejoin="round"/>
<path d="M20.0273 5.8125H22.0007C22.8273 5.8125 23.5607 5.83833 24.214 5.92875C27.7207 6.30333 28.6673 7.905 28.6673 12.2708V18.7292C28.6673 23.095 27.7207 24.6967 24.214 25.0712C23.5607 25.1617 22.8273 25.1875 22.0007 25.1875H20.0273" stroke="#2E2E2E" stroke-width="1.5" stroke-linecap="round" stroke-linejoin="round"/>
<path d="M20 2.58325V28.4166" stroke="#2E2E2E" stroke-width="1.5" stroke-linecap="round" stroke-linejoin="round"/>
<path d="M14.7922 15.5001H14.8041" stroke="#2E2E2E" stroke-width="2" stroke-linecap="round" stroke-linejoin="round"/>
<path d="M9.46012 15.5001H9.4721" stroke="#2E2E2E" stroke-width="2" stroke-linecap="round" stroke-linejoin="round"/>
</svg>
