<svg width="68" height="80" viewBox="0 0 68 80" fill="none" xmlns="http://www.w3.org/2000/svg">
<g filter="url(#filter0_d_10088_27459)">
<path d="M51.5 32.8649C51.5 35.067 50.4247 38.0862 48.7408 41.4345C47.0671 44.7625 44.8305 48.3432 42.5865 51.6442C40.3437 54.9433 38.0999 57.9537 36.4164 60.1399C35.5748 61.2327 34.8736 62.119 34.3831 62.7317C34.2357 62.9158 34.1074 63.0752 34 63.2081C33.8926 63.0752 33.7643 62.9158 33.6169 62.7317C33.1264 62.119 32.4252 61.2327 31.5836 60.1399C29.9001 57.9537 27.6563 54.9433 25.4135 51.6442C23.1695 48.3432 20.9329 44.7625 19.2592 41.4345C17.5753 38.0862 16.5 35.067 16.5 32.8649C16.5 23.857 24.3038 16.5 34 16.5C43.6962 16.5 51.5 23.857 51.5 32.8649Z" fill="white" stroke="#004F9F"/>
<g clip-path="url(#clip0_10088_27459)">
<rect width="24" height="16.4571" transform="translate(22 25.0428)" fill="white"/>
<g clip-path="url(#clip1_10088_27459)">
<path d="M29.2173 25.5772C29.2589 25.5355 29.2984 25.5189 29.3338 25.5189C29.3951 25.5189 29.4388 25.5741 29.4367 25.6397C29.4346 25.6803 29.418 25.723 29.3785 25.7616C27.8507 27.6646 26.7388 29.8905 26.7388 32.9767C26.7388 36.0609 27.8507 38.2431 29.3785 40.1461C29.417 40.1846 29.4346 40.2305 29.4367 40.2679C29.4378 40.3346 29.3951 40.3898 29.3338 40.3898C29.2994 40.3898 29.2589 40.3731 29.2173 40.3315L22.7024 34.0215C22.3769 33.7434 22.1699 33.4173 22.1699 32.9549C22.1699 32.4903 22.3779 32.1653 22.7024 31.8883L29.2173 25.5772Z" fill="#E30613"/>
<path d="M34.2243 25.0428C31.6741 25.0428 30.6777 28.6635 30.6777 32.9767C30.6777 37.2921 31.6741 40.8637 34.2243 40.8637C35.7552 40.8637 37.0595 39.9659 37.0636 39.2274C37.0636 39.0659 37.0023 38.9118 36.8671 38.7764C36.1421 38.0743 35.8592 37.3733 35.8551 36.7536C35.8509 35.5714 36.8754 34.6912 37.8177 34.6912C39.1156 34.6912 39.8801 35.713 39.8801 37.0348C39.8801 38.2879 39.3465 39.3326 38.7672 40.1679C38.7443 40.2023 38.735 40.2398 38.735 40.2731C38.735 40.3377 38.7735 40.3919 38.8317 40.3919C38.8671 40.3919 38.9087 40.3731 38.9523 40.3284L45.4682 34.0183C45.7927 33.7402 46.0007 33.4142 46.0007 32.9517C46.0007 32.4872 45.7927 32.1622 45.4682 31.8851L38.9523 25.573C38.9076 25.5293 38.8671 25.5095 38.8317 25.5095C38.7724 25.5095 38.735 25.5647 38.735 25.6303C38.735 25.6636 38.7443 25.7011 38.7672 25.7366C39.3465 26.5709 39.8801 27.6166 39.8801 28.8676C39.8801 30.1894 39.1146 31.2123 37.8177 31.2123C36.8743 31.2123 35.8509 30.3311 35.8551 29.1488C35.8582 28.5312 36.1421 27.8281 36.8671 27.1271C37.0023 26.9906 37.0636 26.8375 37.0636 26.6761C37.0595 25.9428 35.7542 25.0428 34.2243 25.0428Z" fill="#004F9F"/>
</g>
</g>
</g>
<defs>
<filter id="filter0_d_10088_27459" x="0" y="0" width="68" height="80" filterUnits="userSpaceOnUse" color-interpolation-filters="sRGB">
<feFlood flood-opacity="0" result="BackgroundImageFix"/>
<feColorMatrix in="SourceAlpha" type="matrix" values="0 0 0 0 0 0 0 0 0 0 0 0 0 0 0 0 0 0 127 0" result="hardAlpha"/>
<feOffset/>
<feGaussianBlur stdDeviation="8"/>
<feColorMatrix type="matrix" values="0 0 0 0 0 0 0 0 0 0 0 0 0 0 0 0 0 0 0.06 0"/>
<feBlend mode="normal" in2="BackgroundImageFix" result="effect1_dropShadow_10088_27459"/>
<feBlend mode="normal" in="SourceGraphic" in2="effect1_dropShadow_10088_27459" result="shape"/>
</filter>
<clipPath id="clip0_10088_27459">
<rect width="24" height="16.4571" fill="white" transform="translate(22 25.0428)"/>
</clipPath>
<clipPath id="clip1_10088_27459">
<rect width="23.8306" height="15.8209" fill="white" transform="translate(22.1699 25.0428)"/>
</clipPath>
</defs>
</svg>
